<svg width="18" height="18" viewBox="0 0 18 18" fill="none" xmlns="http://www.w3.org/2000/svg">
<path fill-rule="evenodd" clip-rule="evenodd" d="M8.9998 16.2008C10.9094 16.2008 12.7407 15.4422 14.091 14.092C15.4412 12.7417 16.1998 10.9103 16.1998 9.00078C16.1998 7.09122 15.4412 5.25987 14.091 3.90961C12.7407 2.55935 10.9094 1.80078 8.9998 1.80078C7.09025 1.80078 5.2589 2.55935 3.90864 3.90961C2.55837 5.25987 1.7998 7.09122 1.7998 9.00078C1.7998 10.9103 2.55837 12.7417 3.90864 14.092C5.2589 15.4422 7.09025 16.2008 8.9998 16.2008V16.2008ZM6.2998 8.10078C6.5385 8.10078 6.76742 8.00596 6.9362 7.83718C7.10498 7.66839 7.1998 7.43948 7.1998 7.20078C7.1998 6.96209 7.10498 6.73317 6.9362 6.56439C6.76742 6.3956 6.5385 6.30078 6.2998 6.30078C6.06111 6.30078 5.83219 6.3956 5.66341 6.56439C5.49463 6.73317 5.3998 6.96209 5.3998 7.20078C5.3998 7.43948 5.49463 7.66839 5.66341 7.83718C5.83219 8.00596 6.06111 8.10078 6.2998 8.10078ZM12.5998 7.20078C12.5998 7.43948 12.505 7.66839 12.3362 7.83718C12.1674 8.00596 11.9385 8.10078 11.6998 8.10078C11.4611 8.10078 11.2322 8.00596 11.0634 7.83718C10.8946 7.66839 10.7998 7.43948 10.7998 7.20078C10.7998 6.96209 10.8946 6.73317 11.0634 6.56439C11.2322 6.3956 11.4611 6.30078 11.6998 6.30078C11.9385 6.30078 12.1674 6.3956 12.3362 6.56439C12.505 6.73317 12.5998 6.96209 12.5998 7.20078ZM12.1822 12.1823C12.2658 12.0987 12.332 11.9994 12.3772 11.8902C12.4224 11.7809 12.4457 11.6639 12.4456 11.5457C12.4456 11.4274 12.4223 11.3104 12.377 11.2012C12.3317 11.092 12.2654 10.9928 12.1818 10.9092C12.0981 10.8257 11.9989 10.7594 11.8896 10.7142C11.7804 10.669 11.6633 10.6458 11.5451 10.6458C11.4269 10.6458 11.3099 10.6692 11.2007 10.7144C11.0915 10.7597 10.9923 10.8261 10.9087 10.9097C10.4024 11.4159 9.71575 11.7002 8.9998 11.7002C8.28386 11.7002 7.59723 11.4159 7.0909 10.9097C6.92215 10.7408 6.69322 10.6459 6.45447 10.6458C6.21573 10.6457 5.98673 10.7405 5.81785 10.9092C5.64898 11.078 5.55406 11.3069 5.55397 11.5457C5.55389 11.7844 5.64865 12.0134 5.8174 12.1823C6.23528 12.6003 6.73141 12.9318 7.27745 13.1581C7.8235 13.3843 8.40876 13.5007 8.9998 13.5007C9.59085 13.5007 10.1761 13.3843 10.7222 13.1581C11.2682 12.9318 11.7643 12.6003 12.1822 12.1823V12.1823Z" fill="#E6B323"/>
</svg>
