<svg width="1440" height="172" viewBox="0 0 1440 172" fill="none" xmlns="http://www.w3.org/2000/svg">
<g filter="url(#filter0_d_398_4236)">
<path d="M498.253 144.233C495.059 143.812 492.412 143.922 490.143 144.913C489.113 145.364 488.083 145.534 486.592 145.234C484.259 144.753 481.99 144.773 479.574 145.434C476.947 146.165 474.573 145.274 472.367 144.653C470.265 144.062 468.29 143.392 466.252 142.761C466.042 142.701 465.811 142.611 465.601 142.611C459.486 142.611 453.225 141.36 447.258 143.121C446.585 143.322 444.988 143.161 444.253 142.901C442.404 142.24 440.639 142.24 438.748 142.721C436.605 143.262 434.546 143.502 432.297 142.771C430.974 142.341 429.818 142.611 428.557 143.081C425.279 144.293 422.107 145.594 417.799 146.065C415.593 146.305 413.471 146.906 411.538 147.496C410.193 147.907 409.163 147.957 408.029 147.476C406.621 146.876 405.402 147.096 403.806 147.426C401.452 147.897 398.868 148.117 396.346 148.357C392.102 148.778 388.257 148.347 384.853 147.016C382.311 146.025 380.798 145.965 377.709 146.906C375.839 147.476 374.221 147.797 372.057 147.186C371.321 146.976 369.956 147.056 369.031 147.216C366.09 147.716 364.682 147.566 362.854 146.365C360.101 144.573 356.592 144.133 352.201 144.973C351.675 145.074 350.751 144.983 350.289 144.813C346.969 143.632 343.712 142.471 339.132 143.091C338.438 143.182 337.556 142.951 336.778 142.851C335.076 142.631 333.563 142.551 331.988 143.212C330.391 143.882 323.772 143.752 322.049 143.131C319.591 142.24 316.943 141.73 313.812 141.52C310.934 141.329 308.16 140.689 305.366 140.238C304.903 140.168 304.462 139.988 304 139.988C299.84 140.028 296.562 139.127 293.347 137.956C292.212 137.545 290.342 137.495 288.788 137.485C285.131 137.455 281.475 137.485 277.84 137.635C276.916 137.675 275.991 138.196 275.235 138.566C274.268 139.047 273.659 139.167 272.419 138.647C271.138 138.106 269.457 137.696 267.818 137.465C266.935 137.335 265.759 137.726 264.687 137.816C263.489 137.916 261.935 138.186 261.094 137.946C258.258 137.125 255.463 137.345 252.542 137.655C251.933 137.726 251.261 137.746 250.63 137.736C247.479 137.706 244.348 137.605 241.196 137.625C238.401 137.645 235.817 137.686 233.527 136.594C230.732 135.283 230.081 135.413 226.635 136.244C223.483 136.995 220.205 137.655 216.907 138.236C216.066 138.386 214.616 138.276 213.965 137.996C211.57 136.985 209.09 136.885 206.611 137.726C204.447 138.466 203.333 139.538 203.732 140.879C203.795 141.099 203.816 141.329 203.9 141.71C203.123 141.67 202.472 141.72 201.967 141.6C198.9 140.909 195.874 140.168 192.806 139.477C191.083 139.097 190.096 139.638 189.15 140.238C188.373 140.729 187.658 141.329 186.587 141.59C185.494 141.86 183.582 142.07 182.784 141.8C179.716 140.779 176.06 140.989 172.782 140.499C171.668 140.328 170.072 140.659 168.853 140.939C164.882 141.83 162.234 141.73 159.587 140.118C156.54 138.266 152.8 138.056 148.471 138.596C148.072 138.647 147.589 138.787 147.295 138.717C144.059 138.016 141.243 138.677 138.428 139.297C137.23 139.558 136.159 139.948 135.024 140.268C134.499 140.419 133.826 140.749 133.427 140.689C131.158 140.348 128.447 140.869 126.535 139.578C125.758 139.057 123.131 139.097 121.303 139.027C117.92 138.897 114.454 139.057 111.155 138.767C106.805 138.386 102.54 138.166 98.0854 138.346C96.3835 138.416 94.5345 137.786 92.7905 137.435C91.6559 137.205 90.6053 136.865 89.4496 136.644C85.6675 135.934 81.8434 135.263 78.0403 134.562C76.5905 134.302 75.1827 134.011 73.7539 133.731C70.9804 133.191 68.3119 132.39 65.4333 132.159C61.9453 131.869 58.8146 130.898 55.5788 130.768C51.1874 130.588 46.5017 130.187 42.0893 131.228C39.715 131.789 37.2356 131.869 34.6722 131.028C33.4745 130.638 31.3103 130.878 29.6083 130.898C28.6628 130.908 27.5072 131.299 26.8558 131.148C23.8511 130.418 21.6029 131.228 19.3756 131.899C16.3079 132.83 13.0721 132.7 10.3827 131.889C7.42 130.998 4.39431 130.798 1.11649 130.788C-2.47651 130.768 -6.0695 130.678 -9.6625 130.658C-13.2555 130.638 -16.8695 130.598 -20.4415 130.728C-21.7862 130.778 -23.194 131.188 -24.3287 131.589C-26.8921 132.49 -29.8337 132.39 -32.7333 132.55C-35.5279 132.7 -38.2804 133 -41.075 133.181C-41.5793 133.211 -42.5038 133.05 -42.6298 132.88C-43.3653 131.819 -44.3738 130.738 -44.4369 129.657C-44.71 125.062 -44.731 120.477 -44.731 115.882C-44.731 111.907 -44.5209 107.933 -44.5419 103.959C-44.5629 97.912 -44.647 91.8654 -44.794 85.8188C-44.9411 80.1226 -45.1512 74.4263 -45.4454 68.7201C-45.5295 67.1684 -46.1178 65.6167 -46.2228 64.055C-46.6221 58.4489 -46.8112 52.8427 -47.2944 47.2366C-47.7987 41.3201 -48.7653 35.4037 -49.0594 29.4772C-49.3746 23.4005 -49.0174 17.3139 -49.1225 11.2272C-49.2275 5.41086 -49.2485 -0.415508 -49.9209 -6.21185C-50.4882 -10.9771 -51.98 -15.7222 -53.0096 -20.4774C-53.3248 -21.9491 -53.3038 -23.4407 -53.661 -24.9123C-53.9551 -26.1737 -54.7326 -27.415 -54.9847 -28.6864C-55.2789 -30.098 -51.2656 -31.3794 -48.282 -31.1091C-43.7014 -30.6986 -39.0158 -30.4984 -34.3933 -30.148C-32.8384 -30.0279 -31.2205 -29.8077 -29.8547 -29.4473C-25.9466 -28.4161 -22.2905 -27.1648 -18.2773 -26.2337C-13.0454 -25.0224 -7.3092 -25.7732 -1.80413 -25.6131C1.3056 -26.8845 5.17175 -26.444 8.74374 -26.6542C9.85736 -26.7243 11.034 -26.6041 12.1476 -26.6542C13.5554 -26.7243 14.9632 -26.9245 16.371 -26.9946C17.8628 -27.0747 19.3756 -27.1447 20.8675 -27.0747C22.5274 -27.0046 24.1663 -26.7543 25.8262 -26.6142C26.4566 -26.5641 27.213 -26.6742 27.7593 -26.5541C31.3103 -25.7632 34.378 -26.5841 37.6558 -27.0647C39.799 -27.375 42.4465 -27.4851 44.5687 -27.1948C47.9515 -26.7443 50.8932 -26.444 54.5072 -26.9946C58.1632 -27.5552 62.3025 -27.395 66.2317 -27.6253C67.8496 -27.7154 69.4045 -28.0557 71.0224 -28.1859C72.3251 -28.296 73.6698 -28.336 74.9726 -28.276C80.4776 -28.0357 85.9827 -27.7454 91.4878 -27.4951C92.0341 -27.4751 92.7275 -27.5352 93.1267 -27.6853C96.5306 -28.9667 100.481 -28.3961 104.242 -28.4562C105.019 -28.4662 105.944 -28.3861 106.595 -28.1859C108.633 -27.5752 110.482 -27.6153 112.583 -28.1859C113.34 -28.3861 114.685 -28.0858 115.756 -28.0557C117.038 -28.0157 118.362 -27.9456 119.643 -28.0157C121.198 -28.1058 122.711 -28.4562 124.266 -28.4962C126.703 -28.5563 129.162 -28.4462 131.599 -28.4161C131.998 -28.4161 132.461 -28.4161 132.818 -28.4962C139.415 -30.0479 146.727 -29.207 153.598 -29.8677C156.414 -30.138 159.229 -30.2581 162.276 -29.9078C164.104 -29.6975 166.794 -30.3182 168.538 -30.9189C172.194 -32.2003 176.354 -32.5707 180.556 -33.0012C185.788 -33.5317 190.999 -34.0423 196.231 -34.5528C196.84 -34.6129 197.534 -34.6229 198.143 -34.5629C206.212 -33.8721 214.238 -33.3816 222.265 -34.743C223.189 -34.9032 224.555 -34.7831 225.479 -34.5729C228.358 -33.8921 230.963 -33.9722 233.884 -34.653C236.552 -35.2736 239.536 -35.8743 242.415 -35.8943C245.482 -35.9143 247.857 -36.5951 250.525 -36.9755C253.929 -37.466 257.291 -38.0166 260.674 -38.5472C261.83 -38.7274 262.985 -38.8976 264.078 -39.1278C265.948 -39.5183 267.671 -39.8787 269.919 -39.7585C271.642 -39.6684 273.512 -40.149 275.298 -40.4092C278.492 -40.8698 281.665 -41.3303 284.837 -41.8308C285.678 -41.9609 286.455 -42.1812 287.233 -42.3914C287.653 -42.5015 287.947 -42.7518 288.388 -42.8219C290.994 -43.2323 293.578 -43.793 296.247 -43.9531C299.777 -44.1634 303.412 -44.0232 307.005 -44.0833C309.526 -44.1333 312.047 -44.2835 314.569 -44.3636C315.367 -44.3936 316.397 -44.4737 316.985 -44.2935C319.99 -43.3124 323.478 -43.7329 326.714 -43.4426C326.882 -43.4326 327.05 -43.4225 327.197 -43.4326C330.727 -43.7129 334.236 -44.0132 337.766 -44.2835C340.161 -44.4637 342.598 -44.5137 344.952 -44.764C348.44 -45.1344 351.865 -45.665 355.353 -46.0454C356.529 -46.1756 357.874 -46.1655 359.072 -46.0454C360.9 -45.8552 362.644 -45.4848 364.451 -45.2445C367.833 -44.784 370.964 -45.2045 373.78 -46.0855C375.23 -46.5359 376.406 -46.4659 377.562 -46.0054C380.714 -44.734 384.265 -44.7039 388.005 -45.1444C388.488 -45.1945 388.971 -45.2345 389.413 -45.3346C394.119 -46.3557 398.742 -47.487 403.553 -48.378C406.096 -48.8485 408.953 -49.4792 411.685 -48.428C411.811 -48.378 411.979 -48.3379 412.126 -48.3379C415.635 -48.3479 419.27 -48.0776 422.59 -48.438C426.057 -48.8184 428.83 -48.2779 430.932 -47.3769C435.68 -45.3547 440.912 -45.7851 446.186 -46.3257C447.552 -46.4659 448.329 -46.3758 449.506 -46.1055C452.7 -45.3747 456.041 -44.784 459.339 -44.1433C459.634 -44.0833 460.054 -44.0332 460.306 -44.1033C463.311 -44.8841 466.441 -44.0732 469.425 -44.3135C471.841 -44.5037 474.111 -45.1044 476.527 -45.3847C479.721 -45.7551 482.957 -46.3057 486.339 -45.7451C486.76 -45.675 487.369 -45.695 487.768 -45.7851C489.89 -46.2656 491.76 -46.2256 493.715 -45.5148C494.387 -45.2746 495.606 -45.3246 496.572 -45.3346C498.736 -45.3547 500.922 -45.3847 503.086 -45.5148C505.628 -45.665 507.834 -45.685 509.725 -44.5838C510.335 -44.2334 512.184 -44.3235 513.466 -44.3235C515.84 -44.3235 518.004 -44.0432 520.294 -43.7729C524.455 -43.2824 528.447 -42.2913 533.343 -43.1623C537.272 -43.863 541.978 -43.843 546.286 -43.7129C549.816 -43.6128 552.631 -44.0432 555.426 -44.9142C556.014 -45.1044 556.729 -45.2646 557.422 -45.3046C562.654 -45.6249 567.907 -46.0254 573.16 -46.1455C575.261 -46.1956 577.446 -45.6249 579.589 -45.3146C580.346 -45.2045 581.333 -44.8141 581.796 -44.9342C584.884 -45.705 587.721 -44.714 590.641 -44.734C593.373 -44.754 596.125 -44.9842 598.836 -44.8941C601.946 -44.794 605.203 -45.1044 608.102 -44.1734C609.027 -43.883 610.414 -43.853 611.611 -43.823C614.07 -43.7629 616.045 -43.4626 617.137 -42.2613C618.062 -41.2502 619.869 -40.8497 622.18 -41.0299C622.747 -41.07 623.357 -41.08 623.861 -41.2001C628.042 -42.1912 632.14 -41.6906 636.216 -41.0299C636.741 -40.9398 637.414 -40.7096 637.561 -40.4793C638.527 -39.0378 640.187 -38.2769 643.234 -38.3971C646.764 -38.5472 649.537 -37.6662 652.521 -37.1257C656.45 -36.4149 660.043 -35.3037 664.603 -35.7542C665.716 -35.8643 667.313 -35.624 668.196 -35.2636C670.444 -34.3726 672.692 -34.5428 674.772 -35.1635C677.483 -35.9744 679.962 -35.7041 682.357 -35.0334C684.291 -34.4928 685.992 -34.4027 688.157 -34.723C691.372 -35.2036 694.817 -35.3337 698.011 -35.8343C701.751 -36.4249 705.323 -37.2358 708.937 -37.9966C710.87 -38.397 712.635 -39.0077 714.631 -39.298C715.829 -39.4782 717.363 -39.318 718.645 -39.1379C721.229 -38.7775 723.688 -38.1868 726.314 -37.9165C728.163 -37.7263 730.222 -37.8064 732.113 -37.9666C734.53 -38.1768 736.652 -38.0467 738.585 -37.3058C738.711 -37.2558 738.816 -37.1857 738.963 -37.1657C743.165 -36.485 747.347 -35.7842 751.57 -35.1235C753.104 -34.8832 754.659 -34.6329 756.256 -34.5428C757.705 -34.4627 759.218 -34.5528 760.689 -34.6429C762.433 -34.7431 764.156 -34.9333 765.921 -35.0534C766.888 -35.1135 768.064 -34.9333 768.8 -35.1335C771.741 -35.9343 774.074 -35.1235 776.616 -34.673C779.873 -34.1024 782.919 -33.1914 786.638 -33.2815C787.878 -33.3115 789.139 -33.0011 790.421 -32.871C791.765 -32.7309 793.11 -32.5006 794.476 -32.5006C799.035 -32.4906 803.301 -32.0201 807.545 -31.1892C809.688 -30.7687 812.336 -30.8988 814.752 -30.8388C815.719 -30.8188 816.748 -31.069 817.652 -30.9889C820.951 -30.6786 824.102 -30.5284 826.792 -31.7798C827.002 -31.8799 827.422 -31.93 827.716 -31.8999C831.036 -31.6497 834.587 -31.6397 837.634 -31.059C842.593 -30.118 846.963 -30.8688 851.018 -31.8599C853.435 -32.4506 855.725 -32.851 858.183 -32.6908C860.873 -32.5206 862.848 -32.911 864.55 -33.772C865.621 -34.3026 866.504 -34.2125 867.807 -33.9422C869.13 -33.6719 870.685 -33.6418 872.156 -33.5718C873.186 -33.5217 874.236 -33.5718 875.287 -33.6018C876.085 -33.6218 876.989 -33.5918 877.64 -33.762C883.229 -35.2636 884.742 -34.2125 888.02 -32.9411C889.428 -32.4005 891.802 -31.8599 893.273 -32.0601C896.341 -32.4806 898.694 -31.7097 901.32 -31.4895C905.144 -31.1591 908.906 -30.6586 912.688 -30.1981C914.327 -29.9979 915.902 -29.6975 917.541 -29.4773C918.34 -29.3772 919.684 -29.177 919.958 -29.3471C923.214 -31.2392 927.27 -30.3382 931.052 -30.078C933.909 -29.8777 936.704 -29.4473 939.519 -29.1269C941.284 -28.9267 942.881 -28.9467 944.163 -29.7376C945.361 -30.4884 946.916 -30.7587 948.933 -30.4283C950.803 -30.128 952.589 -30.2682 954.228 -30.8988C956.056 -31.6096 957.863 -31.94 960.09 -30.9889C962.296 -30.0479 964.818 -30.148 967.276 -31.029C967.906 -31.2592 969.272 -31.2993 970.05 -31.1391C972.844 -30.5585 975.555 -30.5084 978.622 -30.6886C983.413 -30.9689 988.351 -31.079 993.141 -30.3883C994.003 -30.2682 994.969 -30.2982 995.768 -30.148C996.965 -29.9178 998.31 -29.6975 999.151 -29.2671C1001.08 -28.286 1002.79 -28.0557 1005.48 -28.326C1006.93 -28.4762 1008.73 -28.4462 1010.08 -28.1558C1012.93 -27.5352 1015.64 -27.345 1018.59 -27.9757C1019.26 -28.1158 1020.29 -28.1458 1020.94 -28.0057C1023.99 -27.3249 1026.87 -27.7955 1029.81 -28.1358C1030.71 -28.2359 1031.7 -28.256 1032.62 -28.2159C1035.04 -28.1358 1037.46 -27.8255 1039.83 -27.9156C1044.45 -28.1058 1049.07 -28.8566 1053.59 -28.7165C1057.33 -28.5963 1060.65 -29.0368 1064.16 -29.2671C1065 -29.3271 1066.01 -29.257 1066.79 -29.0969C1072.19 -28.0057 1077.29 -28.4462 1082.42 -29.5574C1083.34 -29.7576 1084.61 -29.5774 1085.72 -29.6074C1087 -29.6375 1088.28 -29.6875 1089.54 -29.7676C1091.01 -29.8577 1092.65 -30.2682 1093.89 -30.0579C1098.12 -29.3572 1102.09 -29.3872 1106.5 -29.8777C1110.09 -30.2782 1114.11 -29.9878 1117.91 -29.8177C1119.97 -29.7276 1121.94 -29.207 1124 -28.9667C1124.72 -28.8867 1125.58 -29.0268 1126.31 -29.1469C1128.79 -29.5774 1130.98 -29.7676 1133.33 -28.7465C1135.64 -27.7554 1138.79 -27.5752 1141.93 -27.7554C1144.78 -27.9256 1147.47 -28.0057 1150.14 -27.1247C1151.34 -26.7343 1153.5 -26.8244 1155.14 -26.9445C1158.48 -27.2048 1161.4 -27.0747 1164.6 -26.3439C1167.18 -25.7532 1170.23 -25.4529 1173.55 -25.8233C1179.54 -26.474 1185.59 -26.6442 1191.53 -25.3328C1193.28 -24.9523 1195.93 -25.0825 1197.86 -25.4028C1202.27 -26.1236 1206.62 -26.6342 1211.26 -26.1236C1213.13 -25.9134 1214.75 -25.9534 1216.31 -26.5941C1216.92 -26.8444 1218.01 -27.0446 1218.76 -26.9846C1222.88 -26.6142 1226.71 -26.9345 1230.32 -27.9356C1232.55 -28.5463 1234.46 -28.1558 1236.52 -27.6253C1237.95 -27.2549 1239.67 -27.0947 1241.31 -27.0046C1243.33 -26.8945 1245.37 -26.9545 1247.4 -26.9445C1247.66 -26.9445 1247.95 -26.8845 1248.14 -26.9345C1250.79 -27.6753 1252.66 -27.0046 1254.88 -26.3138C1257.24 -25.583 1260.09 -25.2327 1262.76 -24.7221C1263.12 -24.652 1263.6 -24.5919 1263.96 -24.642C1266.63 -25.0725 1269.28 -25.4028 1271.99 -24.7021C1272.2 -24.642 1272.64 -24.7221 1272.91 -24.7922C1276.4 -25.7532 1279.68 -25.6932 1282.89 -24.4718C1284.24 -23.9613 1285.69 -24.0514 1287.14 -24.602C1290.06 -25.6932 1295.48 -25.4529 1298 -24.2015C1298.44 -23.9813 1298.99 -23.6609 1299.51 -23.6509C1304.51 -23.5608 1309.09 -21.7588 1314.37 -22.8701C1315.17 -23.0402 1316.05 -23.1404 1316.87 -23.2805C1319.28 -23.701 1321.66 -24.1515 1324.1 -24.5519C1324.6 -24.632 1325.44 -24.682 1325.74 -24.5419C1328.95 -23.1103 1331.62 -24.5719 1334.5 -24.8723C1336.35 -25.0625 1338.26 -25.3928 1340.11 -25.3228C1343.3 -25.2026 1346.31 -25.0424 1348.64 -26.4039C1349.04 -26.6442 1349.94 -26.6943 1350.61 -26.8044C1352.84 -27.1748 1355.03 -27.7154 1357.32 -27.8555C1361.46 -28.1058 1365.7 -28.6564 1369.73 -27.5852C1370.36 -27.415 1371.12 -27.1548 1371.75 -27.1948C1378.62 -27.6153 1385.28 -25.6131 1392.22 -26.8144C1392.72 -26.9045 1393.44 -26.9045 1393.9 -26.8044C1397.78 -25.9234 1401.97 -26.2137 1405.9 -26.4139C1410.29 -26.6442 1414.38 -27.8555 1419.07 -27.355C1419.78 -27.2749 1420.71 -27.6453 1421.55 -27.8055C1422.31 -27.9456 1423.15 -28.276 1423.82 -28.2059C1427.2 -27.8355 1429.28 -29.0168 1431.76 -29.6675C1434.01 -30.2582 1440.02 -30.3583 1441.93 -29.5974C1442.58 -29.3371 1442.85 -28.8166 1443.06 -28.3861C1443.32 -27.8555 1443.09 -27.2649 1443.44 -26.7643C1446.83 -22.0392 1446.99 -17.1138 1447.56 -12.2084C1448.59 -3.51891 1449.68 5.17059 1450.46 13.8601C1451.18 21.5385 1451.49 29.2269 1452.02 36.9153C1452.56 45.0642 1453.09 53.2131 1453.72 61.362C1454.1 66.4376 1454.75 71.5031 1455.08 76.5687C1455.44 82.0647 1455.52 87.5707 1455.86 93.0767C1456.01 95.6095 1456.62 98.1323 1456.81 100.665C1457.12 104.669 1457.12 108.684 1457.48 112.688C1457.88 116.903 1458.59 121.097 1459.05 125.312C1459.33 127.645 1459.22 129.997 1459.58 132.33C1460.11 135.633 1461.13 138.917 1461.51 142.22C1461.93 145.714 1461.79 149.228 1462 152.722C1462.06 153.643 1461.34 153.953 1459.43 153.953C1455.97 153.963 1452.9 153.553 1450.04 152.592C1449.26 152.332 1447.56 152.342 1446.72 152.582C1444.89 153.092 1443.38 153.242 1441.53 152.632C1439.91 152.101 1438.36 152.151 1436.59 152.772C1435.33 153.212 1433.32 153.493 1431.78 153.383C1429.11 153.192 1426.86 153.613 1424.83 154.194C1422.39 154.894 1419.97 154.664 1417.49 154.624C1414.32 154.574 1411.38 154.774 1409.09 156.006C1408.5 156.326 1407.51 156.636 1406.65 156.666C1403.9 156.786 1401.13 156.776 1398.35 156.816C1397.7 156.826 1396.88 156.766 1396.44 156.927C1393.92 157.868 1390.98 157.497 1388.18 157.667C1386.04 157.797 1383.92 158.058 1381.79 158.318C1379.63 158.578 1377.61 158.799 1375.45 158.188C1373.16 157.537 1370.7 156.997 1368.22 156.526C1367.49 156.386 1366.22 156.526 1365.53 156.756C1362.95 157.607 1360.19 157.848 1357.17 157.607C1356.77 157.577 1356.31 157.557 1355.95 157.617C1352.48 158.238 1349.04 158.909 1345.55 159.499C1344.41 159.69 1343.09 159.63 1341.91 159.78C1340.97 159.89 1339.83 160.03 1339.22 160.34C1338.05 160.961 1336.81 161.131 1335.11 161.091C1333.11 161.051 1331.09 161.201 1329.08 161.301C1326.77 161.421 1325 160.881 1323.28 160.28C1322.35 159.96 1321.45 159.619 1320.57 159.269C1318.49 158.438 1316.64 157.317 1313.51 158.608C1312.77 158.919 1311.11 158.829 1309.91 158.769C1304.39 158.508 1299.41 159.349 1294.22 160.09C1291.05 160.54 1287.09 160.641 1283.54 159.97C1282.7 159.81 1281.36 159.8 1280.69 160.02C1279.07 160.55 1277.64 160.571 1276.19 160.02C1274.57 159.409 1273.21 159.589 1271.46 159.97C1268.79 160.561 1265.92 161.121 1262.89 160.55C1259.32 159.89 1255.47 159.559 1252.22 158.468C1251.5 158.228 1249.9 158.338 1248.94 158.548C1245.16 159.359 1241.46 160.16 1237.07 159.73C1235.99 159.63 1234.36 159.98 1233.47 160.37C1230.59 161.652 1230.83 161.552 1227.42 160.821C1225.05 160.31 1222.17 160.33 1219.56 160.05C1216.75 159.75 1214.39 159.98 1212.55 161.101C1212.36 161.211 1211.92 161.361 1211.75 161.331C1209.44 160.861 1207.06 161.662 1204.46 160.951C1202.35 160.39 1199.03 160.571 1196.41 160.821C1194.06 161.041 1192.16 161.271 1190.13 160.45C1187.39 159.349 1184.35 158.558 1180.48 158.829C1178.86 158.939 1177.98 159.109 1178.51 159.99C1178.63 160.19 1178.38 160.591 1178.09 160.661C1177.67 160.751 1176.95 160.671 1176.51 160.54C1174.96 160.07 1173.48 159.519 1171.93 159.039C1169.91 158.418 1167.83 158.078 1165.25 158.188C1163.25 158.278 1161.15 157.798 1159.09 157.657C1157.05 157.527 1154.99 157.487 1152.94 157.447C1149.95 157.387 1146.95 157.337 1143.96 157.347C1142.49 157.357 1141.02 157.547 1139.55 157.607C1138.75 157.637 1137.95 157.597 1137.16 157.547C1136.23 157.487 1135.03 157.147 1134.42 157.317C1132.45 157.868 1131.08 157.277 1129.44 156.997C1127.6 156.676 1125.54 156.276 1123.67 156.386C1119.51 156.616 1116 155.976 1112.45 155.125C1111.12 154.814 1109.53 154.614 1108.08 154.624C1105.32 154.654 1102.49 155.125 1099.86 154.934C1097.34 154.754 1094.82 154.083 1092.65 153.393C1089 152.221 1085.15 151.4 1080.82 152.041C1076.43 152.692 1071.85 153.303 1068.55 155.054C1067.46 155.635 1062.29 155.675 1060.42 155.265C1059.35 155.024 1058.15 154.854 1056.97 154.834C1054.08 154.784 1051.15 154.884 1048.26 154.834C1047.06 154.814 1045.78 154.674 1044.7 154.444C1040.52 153.523 1037.31 153.713 1033.99 155.145C1031.82 156.086 1030.58 156.076 1028.53 155.195C1024.26 153.363 1024.51 153.813 1020.27 155.225C1017.83 156.036 1015.88 156.897 1012.64 156.536C1011.82 156.446 1010.69 156.676 1009.89 156.907C1005.83 158.068 1001.84 157.477 997.701 157.007C995.663 156.776 993.394 156.856 991.292 157.007C989.99 157.097 988.855 157.617 987.573 157.848C987.027 157.948 986.123 157.898 985.64 157.747C983.938 157.217 982.299 156.636 980.703 156.036C979.316 155.515 978.097 155.575 976.689 156.026C975.828 156.296 974.714 156.396 973.706 156.566C973.264 156.636 972.739 156.646 972.34 156.756C968.915 157.697 965.532 158.648 962.128 159.589C961.981 159.63 961.813 159.66 961.666 159.66C957.737 159.65 953.828 159.629 949.899 159.609C949.815 159.609 949.731 159.579 949.668 159.589C946.243 160.33 942.923 159.539 939.541 159.479C935.086 159.409 930.737 159.96 928.278 162.082C928.089 162.252 927.774 162.393 927.648 162.573C926.639 163.934 925.946 164.204 923.404 163.454C919.201 162.192 915.482 162.563 911.595 163.694C909.914 164.184 908.254 164.064 906.573 163.484C902.707 162.142 898.463 161.111 893.756 160.591C892.138 160.41 890.73 160.45 889.512 161.111C888.041 161.902 886.549 162.393 884.322 161.461C883.25 161.021 881.443 160.991 880.056 160.701C877.598 160.19 875.245 159.569 872.744 159.089C870.139 158.588 867.618 158.999 865.18 159.499C861.629 160.23 857.889 159.88 855.326 158.598C852.951 157.417 850.619 157.267 847.719 158.178C846.438 158.578 845.45 158.628 844.19 158.158C843.412 157.868 842.235 157.838 841.332 157.627C839.546 157.207 837.76 156.786 836.121 156.266C835.007 155.915 834.146 155.395 833.158 154.954C831.709 154.304 830.322 154.574 828.494 154.734C825.573 154.994 822.442 154.704 819.396 154.654C818.303 154.634 817.063 154.474 816.16 154.654C813.344 155.245 810.739 155.365 808.091 154.484C807.482 154.284 806.537 154.284 805.738 154.224C803.826 154.063 801.914 153.913 800.002 153.773C799.456 153.733 798.888 153.743 798.342 153.783C797.943 153.803 797.523 154.003 797.207 153.963C792.627 153.343 788.277 154.564 783.697 154.314C776.448 153.913 769.241 154.434 762.034 154.724C760.353 154.794 758.609 154.624 756.949 154.464C754.995 154.274 753.44 154.304 751.759 155.004C750.456 155.545 748.502 155.765 746.8 156.066C745.519 156.296 744.174 156.476 742.829 156.616C741.673 156.746 740.497 156.776 739.341 156.886C737.492 157.057 735.496 157.117 733.836 157.497C732.365 157.828 731.147 158.058 729.739 157.617C725.179 156.196 720.578 156.516 715.871 157.467C714.968 157.657 713.791 157.787 712.866 157.667C710.492 157.367 708.601 157.848 706.584 158.278C705.828 158.438 704.861 158.398 703.979 158.418C702.76 158.458 701.394 158.308 700.365 158.538C698.074 159.059 696.267 159.109 694.061 158.298C692.17 157.607 689.838 157.037 687.085 157.797C685.425 158.258 683.408 158.488 681.937 157.377C681.601 157.127 680.214 156.997 679.479 157.107C677.315 157.417 675.928 157.077 674.646 156.256C674.016 155.845 672.902 155.575 671.936 155.295C669.267 154.514 666.83 154.404 663.741 155.195C661.934 155.655 658.824 155.445 656.723 155.044C653.466 154.424 650.378 153.643 646.827 153.603C645.545 153.583 644.032 153.723 642.982 154.053C639.641 155.095 638.38 155.105 635.669 153.723C633.757 152.752 631.026 152.502 628.862 151.871C625.605 150.92 622.138 150.71 618.734 150.299C616.675 150.049 614.259 150.409 612.283 150.089C609.531 149.649 607.367 149.478 604.278 149.979C600.895 150.53 596.714 150.329 593.058 150.019C590.789 149.829 588.666 149.018 586.187 149.348C584.968 149.508 583.561 149.839 582.825 150.299C580.346 151.881 577.068 151.961 573.979 150.71C571.269 149.619 568.075 148.798 565.007 147.937C564.461 147.777 563.41 147.917 562.675 148.027C559.523 148.477 556.413 149.278 553.493 147.696C553.052 147.456 551.266 147.456 550.593 147.676C548.786 148.277 547.399 148.357 545.256 147.857C542.041 147.106 540.066 147.466 537.692 148.788C536.557 149.418 535.528 149.498 533.868 149.048C532.817 148.758 531.031 148.738 529.855 148.938C526.304 149.568 522.942 149.719 519.706 148.607C515.945 147.316 512.226 145.995 508.423 144.743C507.414 144.413 506.111 144.263 504.914 144.072C504.073 143.942 503.023 143.992 502.35 143.772C500.564 143.202 499.178 143.131 498.253 144.233Z" fill="#EBEBEB"/>
</g>
<defs>
<filter id="filter0_d_398_4236" x="-59" y="-49" width="1525" height="221" filterUnits="userSpaceOnUse" color-interpolation-filters="sRGB">
<feFlood flood-opacity="0" result="BackgroundImageFix"/>
<feColorMatrix in="SourceAlpha" type="matrix" values="0 0 0 0 0 0 0 0 0 0 0 0 0 0 0 0 0 0 127 0" result="hardAlpha"/>
<feOffset dy="4"/>
<feGaussianBlur stdDeviation="2"/>
<feComposite in2="hardAlpha" operator="out"/>
<feColorMatrix type="matrix" values="0 0 0 0 0 0 0 0 0 0 0 0 0 0 0 0 0 0 0.25 0"/>
<feBlend mode="normal" in2="BackgroundImageFix" result="effect1_dropShadow_398_4236"/>
<feBlend mode="normal" in="SourceGraphic" in2="effect1_dropShadow_398_4236" result="shape"/>
</filter>
</defs>
</svg>
