<svg width="461" height="534" viewBox="0 0 461 534" fill="none" xmlns="http://www.w3.org/2000/svg">
<path d="M106.963 7.69393V6.2147L105.484 6.2147V7.69393L106.963 7.69393ZM128.631 7.69393L130.111 7.69393V6.2147L128.631 6.2147V7.69393ZM129.065 58.5062L127.597 58.6925L127.599 58.7017L129.065 58.5062ZM130.527 64.6816L131.915 64.1702L131.901 64.1299L131.883 64.0905L130.527 64.6816ZM134.807 69.232L135.504 67.9274L135.468 67.9082L135.431 67.8909L134.807 69.232ZM149.921 69.232L149.269 67.9039L149.246 67.9153L149.223 67.9274L149.921 69.232ZM154.254 64.6816L155.595 65.3059L155.613 65.2689L155.628 65.231L154.254 64.6816ZM155.663 58.5062L154.2 58.2867L154.198 58.2974L154.197 58.3081L155.663 58.5062ZM156.15 7.69393V6.2147L154.671 6.2147V7.69393L156.15 7.69393ZM177.656 7.69393L179.135 7.69393V6.2147L177.656 6.2147V7.69393ZM176.085 68.7986L174.65 68.4398L174.647 68.4502L174.645 68.4605L176.085 68.7986ZM170.776 79.4703L169.658 78.502L169.653 78.5076L170.776 79.4703ZM159.563 86.675L159.105 85.2684L159.089 85.2738L159.072 85.2795L159.563 86.675ZM125.165 86.675L125.666 85.2832L125.647 85.2766L125.629 85.2706L125.165 86.675ZM113.951 79.4703L112.831 80.4364L112.84 80.4469L113.951 79.4703ZM108.642 68.7986L110.078 68.4427L110.076 68.4327L110.073 68.4228L108.642 68.7986ZM106.963 9.17315L128.631 9.17315V6.2147L106.963 6.2147V9.17315ZM127.152 7.69393L127.152 46.2635H130.111L130.111 7.69393L127.152 7.69393ZM127.152 46.2635C127.152 52.1455 127.295 56.313 127.597 58.6925L130.532 58.3198C130.257 56.1489 130.111 52.1547 130.111 46.2635H127.152ZM127.599 58.7017C127.966 61.4582 128.476 63.6766 129.171 65.2727L131.883 64.0905C131.351 62.8698 130.886 60.9712 130.531 58.3107L127.599 58.7017ZM129.139 65.193C130.041 67.6391 131.755 69.4428 134.183 70.573L135.431 67.8909C133.67 67.071 132.531 65.8411 131.915 64.1702L129.139 65.193ZM134.11 70.5365C136.465 71.7957 139.245 72.3905 142.391 72.3905V69.432C139.614 69.432 137.338 68.9073 135.504 67.9274L134.11 70.5365ZM142.391 72.3905C145.504 72.3905 148.265 71.7944 150.618 70.5365L149.223 67.9274C147.387 68.9086 145.128 69.432 142.391 69.432V72.3905ZM150.572 70.56C152.816 69.4593 154.49 67.6795 155.595 65.3059L152.913 64.0573C152.068 65.8729 150.854 67.1267 149.269 67.9039L150.572 70.56ZM155.628 65.231C156.272 63.6206 156.761 61.423 157.129 58.7042L154.197 58.3081C153.842 60.9341 153.392 62.8535 152.881 64.1323L155.628 65.231ZM157.126 58.7256C157.469 56.4341 157.629 52.2475 157.629 46.2635L154.671 46.2635C154.671 52.2694 154.506 56.2445 154.2 58.2867L157.126 58.7256ZM157.629 46.2635L157.629 40.8465L154.671 40.8465L154.671 46.2635L157.629 46.2635ZM157.629 40.8465L157.629 7.69393L154.671 7.69393L154.671 40.8465L157.629 40.8465ZM156.15 9.17315L177.656 9.17315V6.2147L156.15 6.2147V9.17315ZM176.177 7.69393L176.177 49.6221H179.135L179.135 7.69393L176.177 7.69393ZM176.177 49.6221C176.177 58.1907 175.652 64.4335 174.65 68.4398L177.52 69.1574C178.613 64.7853 179.135 58.2438 179.135 49.6221H176.177ZM174.645 68.4605C173.72 72.4018 172.052 75.7374 169.658 78.502L171.895 80.4385C174.629 77.2805 176.5 73.5016 177.525 69.1367L174.645 68.4605ZM169.653 78.5076C167.036 81.5615 163.54 83.8244 159.105 85.2684L160.021 88.0815C164.903 86.492 168.883 83.9517 171.899 80.4329L169.653 78.5076ZM159.072 85.2795C154.656 86.8321 149.11 87.6334 142.391 87.6334L142.391 90.5919C149.323 90.5919 155.225 89.7681 160.054 88.0705L159.072 85.2795ZM142.391 87.6334C135.521 87.6334 129.964 86.8306 125.666 85.2832L124.664 88.0668C129.394 89.7696 135.32 90.5919 142.391 90.5919L142.391 87.6334ZM125.629 85.2706C121.266 83.8275 117.76 81.5623 115.062 78.4936L112.84 80.4469C115.921 83.9509 119.891 86.4889 124.7 88.0794L125.629 85.2706ZM115.071 78.5041C112.751 75.8142 111.078 72.4746 110.078 68.4427L107.207 69.1545C108.302 73.5732 110.167 77.3481 112.831 80.4364L115.071 78.5041ZM110.073 68.4228C109.003 64.3505 108.442 58.1129 108.442 49.6221H105.484C105.484 58.1771 106.043 64.7239 107.212 69.1745L110.073 68.4228ZM108.442 49.6221L108.442 41.3882H105.484L105.484 49.6221H108.442ZM108.442 41.3882L108.442 7.69393L105.484 7.69393L105.484 41.3882H108.442ZM222.184 26.112L220.871 26.792L220.976 26.9958L221.139 27.158L222.184 26.112ZM222.293 26.3287H220.814V26.6823L220.974 26.9976L222.293 26.3287ZM224.839 32.6125L223.402 32.9637L226.287 32.9155L224.839 32.6125ZM227.277 26.7621L228.571 27.4787L228.637 27.3593L228.68 27.2298L227.277 26.7621ZM227.602 26.112L228.648 27.158L228.81 26.9958L228.915 26.792L227.602 26.112ZM237.136 7.69393V6.2147L236.236 6.2147L235.822 7.01392L237.136 7.69393ZM262.867 7.69393L264.082 8.5378L265.695 6.2147L262.867 6.2147V7.69393ZM236.377 45.8302L235.162 44.9863L234.569 45.8406L235.172 46.688L236.377 45.8302ZM265.684 87V88.4792H268.552L266.889 86.1422L265.684 87ZM241.144 87L239.862 87.7383L240.289 88.4792H241.144V87ZM227.602 63.4899L226.296 64.186L226.308 64.2073L226.32 64.2282L227.602 63.4899ZM225.922 60.2396L224.554 60.8028L224.597 60.9055L224.654 61.0007L225.922 60.2396ZM224.839 56.9352L226.257 56.5161L224.736 51.3675L223.406 56.5686L224.839 56.9352ZM223.701 60.5105L222.345 59.9207L222.34 59.9311L222.336 59.9415L223.701 60.5105ZM222.184 63.4899L223.466 64.2282L223.478 64.2081L223.489 64.1875L222.184 63.4899ZM208.642 87V88.4792H209.497L209.924 87.7383L208.642 87ZM184.102 87L182.895 86.146L181.245 88.4792H184.102V87ZM213.517 45.3968L214.725 46.2508L215.328 45.3978L214.726 44.5441L213.517 45.3968ZM186.919 7.69393V6.2147L184.065 6.2147L185.711 8.54663L186.919 7.69393ZM212.65 7.69393L213.964 7.01392L213.55 6.2147L212.65 6.2147V7.69393ZM221.139 27.158C221.05 27.069 220.814 26.7871 220.814 26.3287L223.772 26.3287C223.772 25.7258 223.464 25.2995 223.23 25.066L221.139 27.158ZM220.974 26.9976C222.253 29.5217 223.044 31.4996 223.402 32.9637L226.276 32.2613C225.839 30.4751 224.933 28.2638 223.612 25.6597L220.974 26.9976ZM226.287 32.9155C226.568 31.5733 227.3 29.773 228.571 27.4787L225.983 26.0454C224.653 28.4459 223.76 30.5459 223.391 32.3095L226.287 32.9155ZM228.68 27.2298C228.699 27.1715 228.717 27.1246 228.731 27.088C228.746 27.0509 228.757 27.0283 228.762 27.0173C228.768 27.0056 228.765 27.0133 228.751 27.0341C228.744 27.045 228.732 27.0615 228.716 27.0818C228.7 27.102 228.677 27.1283 228.648 27.158L226.556 25.066C226.181 25.4409 225.986 25.957 225.873 26.2943L228.68 27.2298ZM228.915 26.792L238.449 8.37394L235.822 7.01392L226.288 25.432L228.915 26.792ZM237.136 9.17315L262.867 9.17315V6.2147L237.136 6.2147L237.136 9.17315ZM261.652 6.85006L235.162 44.9863L237.592 46.6741L264.082 8.5378L261.652 6.85006ZM235.172 46.688L264.479 87.8578L266.889 86.1422L237.582 44.9724L235.172 46.688ZM265.684 85.5208L241.144 85.5208V88.4792L265.684 88.4792V85.5208ZM242.426 86.2617L228.883 62.7515L226.32 64.2282L239.862 87.7383L242.426 86.2617ZM228.907 62.7938C228.626 62.2664 228.307 61.6464 227.95 60.9324L225.303 62.2554C225.669 62.9859 226 63.6299 226.296 64.186L228.907 62.7938ZM227.95 60.9324C227.597 60.2276 227.335 59.7185 227.191 59.4786L224.654 61.0007C224.727 61.1218 224.934 61.5156 225.303 62.2554L227.95 60.9324ZM227.29 59.6764C227.07 59.1413 226.728 58.1071 226.257 56.5161L223.42 57.3543C223.889 58.9414 224.269 60.11 224.554 60.8028L227.29 59.6764ZM223.406 56.5686C223.016 58.0937 222.659 59.197 222.345 59.9207L225.058 61.1003C225.465 60.1627 225.868 58.8825 226.272 57.3018L223.406 56.5686ZM222.336 59.9415C222.189 60.2949 221.722 61.2185 220.88 62.7922L223.489 64.1875C224.308 62.6554 224.853 61.5928 225.067 61.0794L222.336 59.9415ZM220.903 62.7515L207.36 86.2617L209.924 87.7383L223.466 64.2282L220.903 62.7515ZM208.642 85.5208L184.102 85.5208L184.102 88.4792L208.642 88.4792L208.642 85.5208ZM185.31 87.854L214.725 46.2508L212.309 44.5428L182.895 86.146L185.31 87.854ZM214.726 44.5441L188.128 6.84123L185.711 8.54663L212.308 46.2495L214.726 44.5441ZM186.919 9.17315L212.65 9.17315V6.2147L186.919 6.2147V9.17315ZM211.337 8.37394L220.871 26.792L223.498 25.432L213.964 7.01392L211.337 8.37394ZM306.637 7.69393V6.2147L305.158 6.2147V7.69393L306.637 7.69393ZM328.305 7.69393L329.784 7.69393V6.2147L328.305 6.2147V7.69393ZM328.738 58.5062L327.271 58.6925L327.272 58.7017L328.738 58.5062ZM330.201 64.6816L331.589 64.1702L331.574 64.1299L331.557 64.0905L330.201 64.6816ZM334.481 69.232L335.178 67.9274L335.142 67.9082L335.105 67.8909L334.481 69.232ZM349.594 69.232L348.943 67.9039L348.92 67.9153L348.897 67.9274L349.594 69.232ZM353.928 64.6816L355.269 65.3059L355.286 65.2689L355.301 65.231L353.928 64.6816ZM355.336 58.5062L353.873 58.2867L353.872 58.2974L353.87 58.3081L355.336 58.5062ZM355.824 7.69393V6.2147L354.345 6.2147V7.69393L355.824 7.69393ZM377.33 7.69393L378.809 7.69393V6.2147L377.33 6.2147V7.69393ZM375.759 68.7986L374.324 68.4398L374.321 68.4502L374.319 68.4605L375.759 68.7986ZM370.45 79.4703L369.332 78.502L369.327 78.5076L370.45 79.4703ZM359.237 86.675L358.779 85.2684L358.762 85.2738L358.746 85.2795L359.237 86.675ZM324.838 86.675L325.339 85.2832L325.321 85.2766L325.303 85.2706L324.838 86.675ZM313.625 79.4703L312.505 80.4364L312.514 80.4469L313.625 79.4703ZM308.316 68.7986L309.752 68.4427L309.749 68.4327L309.747 68.4228L308.316 68.7986ZM306.637 9.17315L328.305 9.17315V6.2147L306.637 6.2147V9.17315ZM326.826 7.69393L326.826 46.2635L329.784 46.2635L329.784 7.69393L326.826 7.69393ZM326.826 46.2635C326.826 52.1455 326.969 56.313 327.271 58.6925L330.206 58.3198C329.93 56.1489 329.784 52.1547 329.784 46.2635L326.826 46.2635ZM327.272 58.7017C327.64 61.4582 328.149 63.6766 328.845 65.2727L331.557 64.0905C331.025 62.8698 330.559 60.9712 330.205 58.3107L327.272 58.7017ZM328.813 65.193C329.714 67.6391 331.428 69.4428 333.856 70.573L335.105 67.8909C333.343 67.071 332.205 65.8411 331.589 64.1702L328.813 65.193ZM333.783 70.5365C336.139 71.7957 338.919 72.3905 342.064 72.3905V69.432C339.287 69.432 337.011 68.9073 335.178 67.9274L333.783 70.5365ZM342.064 72.3905C345.177 72.3905 347.938 71.7944 350.292 70.5365L348.897 67.9274C347.061 68.9086 344.802 69.432 342.064 69.432V72.3905ZM350.246 70.56C352.489 69.4593 354.164 67.6795 355.269 65.3059L352.587 64.0573C351.742 65.8729 350.527 67.1267 348.943 67.9039L350.246 70.56ZM355.301 65.231C355.945 63.6206 356.435 61.423 356.802 58.7042L353.87 58.3081C353.516 60.9341 353.066 62.8535 352.554 64.1323L355.301 65.231ZM356.799 58.7256C357.143 56.4341 357.303 52.2475 357.303 46.2635H354.345C354.345 52.2694 354.18 56.2445 353.873 58.2867L356.799 58.7256ZM357.303 46.2635V40.8465H354.345L354.345 46.2635H357.303ZM357.303 40.8465L357.303 7.69393L354.345 7.69393L354.345 40.8465H357.303ZM355.824 9.17315L377.33 9.17315V6.2147L355.824 6.2147V9.17315ZM375.85 7.69393L375.85 49.6221L378.809 49.6221L378.809 7.69393L375.85 7.69393ZM375.85 49.6221C375.85 58.1907 375.325 64.4335 374.324 68.4398L377.194 69.1574C378.287 64.7853 378.809 58.2438 378.809 49.6221L375.85 49.6221ZM374.319 68.4605C373.393 72.4018 371.725 75.7374 369.332 78.502L371.568 80.4385C374.303 77.2805 376.174 73.5016 377.199 69.1367L374.319 68.4605ZM369.327 78.5076C366.709 81.5615 363.214 83.8244 358.779 85.2684L359.695 88.0815C364.577 86.492 368.557 83.9517 371.573 80.4329L369.327 78.5076ZM358.746 85.2795C354.33 86.8321 348.784 87.6334 342.064 87.6334V90.5919C348.996 90.5919 354.898 89.7681 359.727 88.0705L358.746 85.2795ZM342.064 87.6334C335.195 87.6334 329.638 86.8306 325.339 85.2832L324.337 88.0668C329.067 89.7696 334.994 90.5919 342.064 90.5919V87.6334ZM325.303 85.2706C320.939 83.8275 317.434 81.5623 314.736 78.4936L312.514 80.4469C315.594 83.9509 319.564 86.4889 324.374 88.0794L325.303 85.2706ZM314.745 78.5041C312.425 75.8142 310.751 72.4746 309.752 68.4427L306.88 69.1545C307.976 73.5732 309.841 77.3481 312.505 80.4364L314.745 78.5041ZM309.747 68.4228C308.677 64.3505 308.116 58.1129 308.116 49.6221H305.158C305.158 58.1771 305.716 64.7239 306.885 69.1745L309.747 68.4228ZM308.116 49.6221L308.116 41.3882H305.158L305.158 49.6221H308.116ZM308.116 41.3882L308.116 7.69393L305.158 7.69393L305.158 41.3882H308.116ZM394.339 87L392.86 87V88.4792L394.339 88.4792V87ZM394.339 7.69393V6.2147L392.86 6.2147V7.69393L394.339 7.69393ZM416.17 7.69393L417.649 7.69393V6.2147L416.17 6.2147V7.69393ZM416.17 87V88.4792H417.649V87H416.17ZM395.819 87L395.819 7.69393L392.86 7.69393L392.86 87L395.819 87ZM394.339 9.17315L416.17 9.17315V6.2147L394.339 6.2147V9.17315ZM414.691 7.69393L414.691 87H417.649L417.649 7.69393L414.691 7.69393ZM416.17 85.5208L394.339 85.5208V88.4792L416.17 88.4792V85.5208ZM450.406 85.9166L451.434 86.9798L451.443 86.9713L451.452 86.9626L450.406 85.9166ZM434.751 85.9166L433.705 86.9626L433.713 86.9713L433.722 86.9798L434.751 85.9166ZM433.142 78.116C433.142 75.3734 434.036 73.1767 435.797 71.4155L433.705 69.3236C431.349 71.6794 430.184 74.6469 430.184 78.116H433.142ZM435.797 71.4155C437.603 69.6094 439.804 68.7069 442.497 68.7069V65.7484C439.051 65.7484 436.088 66.9405 433.705 69.3236L435.797 71.4155ZM442.497 68.7069C445.314 68.7069 447.565 69.6199 449.36 71.4155L451.452 69.3236C449.058 66.93 446.036 65.7484 442.497 65.7484V68.7069ZM449.36 71.4155C451.121 73.1767 452.015 75.3734 452.015 78.116H454.973C454.973 74.6469 453.808 71.6794 451.452 69.3236L449.36 71.4155ZM452.015 78.116C452.015 80.8999 451.118 83.1129 449.36 84.8706L451.452 86.9626C453.811 84.6033 454.973 81.6159 454.973 78.116H452.015ZM449.378 84.8533C447.451 86.7168 445.184 87.6334 442.497 87.6334V90.5919C445.95 90.5919 448.955 89.3778 451.434 86.9798L449.378 84.8533ZM442.497 87.6334C439.934 87.6334 437.717 86.7276 435.779 84.8533L433.722 86.9798C436.19 89.367 439.137 90.5919 442.497 90.5919V87.6334ZM435.797 84.8706C434.039 83.1129 433.142 80.8999 433.142 78.116H430.184C430.184 81.6159 431.345 84.6033 433.705 86.9626L435.797 84.8706Z" fill="white"/>
<path d="M58.1487 117.895V116.416H56.6695V117.895H58.1487ZM79.817 117.895H81.2963V116.416H79.817V117.895ZM80.2504 168.707L78.7829 168.894L78.7842 168.903L80.2504 168.707ZM81.713 174.883L83.101 174.371L83.0862 174.331L83.069 174.292L81.713 174.883ZM85.9925 179.433L86.6898 178.129L86.6538 178.109L86.6168 178.092L85.9925 179.433ZM101.106 179.433L100.455 178.105L100.432 178.116L100.409 178.129L101.106 179.433ZM105.44 174.883L106.781 175.507L106.798 175.47L106.813 175.432L105.44 174.883ZM106.848 168.707L105.385 168.488L105.384 168.499L105.382 168.509L106.848 168.707ZM107.336 117.895V116.416H105.857V117.895H107.336ZM128.842 117.895H130.321V116.416H128.842V117.895ZM127.271 179L125.836 178.641L125.833 178.651L125.831 178.662L127.271 179ZM121.962 189.671L120.844 188.703L120.839 188.709L121.962 189.671ZM110.749 196.876L110.291 195.47L110.274 195.475L110.258 195.481L110.749 196.876ZM76.3501 196.876L76.8511 195.484L76.8329 195.478L76.8146 195.472L76.3501 196.876ZM65.1367 189.671L64.0166 190.638L64.0258 190.648L65.1367 189.671ZM59.828 179L61.2638 178.644L61.2613 178.634L61.2587 178.624L59.828 179ZM58.1487 119.374L79.817 119.374V116.416L58.1487 116.416V119.374ZM78.3378 117.895L78.3378 156.465H81.2963L81.2963 117.895L78.3378 117.895ZM78.3378 156.465C78.3378 162.347 78.4808 166.514 78.783 168.894L81.7178 168.521C81.4422 166.35 81.2963 162.356 81.2963 156.465H78.3378ZM78.7842 168.903C79.1517 171.659 79.6613 173.878 80.357 175.474L83.069 174.292C82.5369 173.071 82.0714 171.172 81.7167 168.512L78.7842 168.903ZM80.325 175.394C81.2262 177.84 82.9404 179.644 85.3682 180.774L86.6168 178.092C84.8554 177.272 83.7166 176.042 83.101 174.371L80.325 175.394ZM85.2952 180.738C87.651 181.997 90.4308 182.592 93.5764 182.592V179.633C90.7993 179.633 88.5232 179.109 86.6898 178.129L85.2952 180.738ZM93.5764 182.592C96.6893 182.592 99.4501 181.996 101.803 180.738L100.409 178.129C98.573 179.11 96.314 179.633 93.5764 179.633V182.592ZM101.758 180.761C104.001 179.661 105.676 177.881 106.781 175.507L104.099 174.259C103.254 176.074 102.039 177.328 100.455 178.105L101.758 180.761ZM106.813 175.432C107.457 173.822 107.947 171.624 108.314 168.905L105.382 168.509C105.027 171.135 104.578 173.055 104.066 174.333L106.813 175.432ZM108.311 168.927C108.655 166.635 108.815 162.449 108.815 156.465L105.857 156.465C105.857 162.471 105.692 166.446 105.385 168.488L108.311 168.927ZM108.815 156.465L108.815 151.048L105.857 151.048L105.857 156.465L108.815 156.465ZM108.815 151.048L108.815 117.895H105.857L105.857 151.048L108.815 151.048ZM107.336 119.374L128.842 119.374V116.416L107.336 116.416V119.374ZM127.362 117.895L127.362 159.823H130.321L130.321 117.895L127.362 117.895ZM127.362 159.823C127.362 168.392 126.837 174.635 125.836 178.641L128.706 179.359C129.799 174.986 130.321 168.445 130.321 159.823H127.362ZM125.831 178.662C124.905 182.603 123.237 185.939 120.844 188.703L123.08 190.64C125.815 187.482 127.686 183.703 128.711 179.338L125.831 178.662ZM120.839 188.709C118.221 191.763 114.726 194.026 110.291 195.47L111.207 198.283C116.089 196.693 120.069 194.153 123.085 190.634L120.839 188.709ZM110.258 195.481C105.842 197.033 100.296 197.835 93.5764 197.835L93.5764 200.793C100.508 200.793 106.41 199.969 111.239 198.272L110.258 195.481ZM93.5764 197.835C86.7068 197.835 81.1496 197.032 76.8511 195.484L75.8491 198.268C80.5791 199.971 86.506 200.793 93.5764 200.793L93.5764 197.835ZM76.8146 195.472C72.4511 194.029 68.9455 191.764 66.2477 188.695L64.0258 190.648C67.1062 194.152 71.0762 196.69 75.8857 198.281L76.8146 195.472ZM66.2569 188.705C63.9368 186.015 62.2631 182.676 61.2638 178.644L58.3922 179.356C59.4875 183.774 61.353 187.549 64.0166 190.638L66.2569 188.705ZM61.2587 178.624C60.1888 174.552 59.6279 168.314 59.6279 159.823H56.6695C56.6695 168.378 57.2281 174.925 58.3973 179.376L61.2587 178.624ZM59.6279 159.823L59.6279 151.589H56.6695L56.6695 159.823H59.6279ZM59.6279 151.589L59.6279 117.895H56.6695L56.6695 151.589H59.6279ZM173.37 136.313L172.056 136.993L172.162 137.197L172.324 137.359L173.37 136.313ZM173.478 136.53H171.999V136.883L172.159 137.199L173.478 136.53ZM176.024 142.814L174.587 143.165L177.472 143.117L176.024 142.814ZM178.462 136.963L179.756 137.68L179.822 137.56L179.865 137.431L178.462 136.963ZM178.787 136.313L179.833 137.359L179.995 137.197L180.101 136.993L178.787 136.313ZM188.321 117.895V116.416H187.421L187.008 117.215L188.321 117.895ZM214.052 117.895L215.267 118.739L216.881 116.416H214.052V117.895ZM187.563 156.031L186.348 155.187L185.754 156.042L186.358 156.889L187.563 156.031ZM216.869 197.201V198.68H219.738L218.074 196.343L216.869 197.201ZM192.33 197.201L191.048 197.94L191.475 198.68H192.33V197.201ZM178.787 173.691L177.482 174.387L177.493 174.408L177.505 174.429L178.787 173.691ZM177.108 170.441L175.74 171.004L175.782 171.107L175.839 171.202L177.108 170.441ZM176.024 167.136L177.443 166.717L175.922 161.569L174.591 166.77L176.024 167.136ZM174.887 170.712L173.53 170.122L173.526 170.132L173.521 170.143L174.887 170.712ZM173.37 173.691L174.652 174.429L174.663 174.409L174.674 174.389L173.37 173.691ZM159.827 197.201V198.68H160.682L161.109 197.94L159.827 197.201ZM135.288 197.201L134.08 196.347L132.43 198.68H135.288V197.201ZM164.703 155.598L165.911 156.452L166.514 155.599L165.911 154.745L164.703 155.598ZM138.105 117.895V116.416L135.251 116.416L136.896 118.748L138.105 117.895ZM163.836 117.895L165.15 117.215L164.736 116.416H163.836V117.895ZM172.324 137.359C172.235 137.27 171.999 136.988 171.999 136.53L174.958 136.53C174.958 135.927 174.649 135.501 174.416 135.267L172.324 137.359ZM172.159 137.199C173.439 139.723 174.23 141.701 174.587 143.165L177.461 142.462C177.025 140.676 176.118 138.465 174.798 135.861L172.159 137.199ZM177.472 143.117C177.753 141.775 178.485 139.974 179.756 137.68L177.168 136.247C175.839 138.647 174.946 140.747 174.577 142.511L177.472 143.117ZM179.865 137.431C179.885 137.373 179.902 137.326 179.917 137.289C179.932 137.252 179.942 137.229 179.948 137.218C179.954 137.207 179.951 137.214 179.937 137.235C179.929 137.246 179.918 137.263 179.902 137.283C179.885 137.303 179.863 137.329 179.833 137.359L177.741 135.267C177.366 135.642 177.171 136.158 177.059 136.495L179.865 137.431ZM180.101 136.993L189.635 118.575L187.008 117.215L177.473 135.633L180.101 136.993ZM188.321 119.374L214.052 119.374L214.052 116.416L188.321 116.416L188.321 119.374ZM212.837 117.051L186.348 155.187L188.778 156.875L215.267 118.739L212.837 117.051ZM186.358 156.889L215.664 198.059L218.074 196.343L188.768 155.174L186.358 156.889ZM216.869 195.722L192.33 195.722V198.68L216.869 198.68V195.722ZM193.612 196.463L180.069 172.953L177.505 174.429L191.048 197.94L193.612 196.463ZM180.092 172.995C179.811 172.468 179.492 171.848 179.135 171.134L176.489 172.457C176.854 173.187 177.185 173.831 177.482 174.387L180.092 172.995ZM179.135 171.134C178.783 170.429 178.52 169.92 178.376 169.68L175.839 171.202C175.912 171.323 176.119 171.717 176.489 172.457L179.135 171.134ZM178.476 169.878C178.255 169.343 177.913 168.308 177.443 166.717L174.606 167.556C175.075 169.143 175.455 170.311 175.74 171.004L178.476 169.878ZM174.591 166.77C174.201 168.295 173.845 169.398 173.53 170.122L176.243 171.301C176.651 170.364 177.053 169.084 177.457 167.503L174.591 166.77ZM173.521 170.143C173.374 170.496 172.907 171.42 172.066 172.993L174.674 174.389C175.494 172.857 176.038 171.794 176.252 171.281L173.521 170.143ZM172.088 172.953L158.546 196.463L161.109 197.94L174.652 174.429L172.088 172.953ZM159.827 195.722L135.288 195.722L135.288 198.68L159.827 198.68L159.827 195.722ZM136.496 198.055L165.911 156.452L163.495 154.744L134.08 196.347L136.496 198.055ZM165.911 154.745L139.314 117.042L136.896 118.748L163.494 156.451L165.911 154.745ZM138.105 119.374L163.836 119.374V116.416L138.105 116.416V119.374ZM162.522 118.575L172.056 136.993L174.684 135.633L165.15 117.215L162.522 118.575ZM257.822 117.895V116.416H256.343V117.895H257.822ZM279.491 117.895H280.97V116.416H279.491V117.895ZM279.924 168.707L278.457 168.894L278.458 168.903L279.924 168.707ZM281.387 174.883L282.775 174.371L282.76 174.331L282.743 174.292L281.387 174.883ZM285.666 179.433L286.363 178.129L286.327 178.109L286.29 178.092L285.666 179.433ZM300.78 179.433L300.128 178.105L300.105 178.116L300.083 178.129L300.78 179.433ZM305.113 174.883L306.454 175.507L306.472 175.47L306.487 175.432L305.113 174.883ZM306.522 168.707L305.059 168.488L305.057 168.499L305.056 168.509L306.522 168.707ZM307.009 117.895V116.416H305.53V117.895H307.009ZM328.515 117.895H329.994V116.416H328.515V117.895ZM326.944 179L325.509 178.641L325.507 178.651L325.504 178.662L326.944 179ZM321.636 189.671L320.517 188.703L320.512 188.709L321.636 189.671ZM310.422 196.876L309.964 195.47L309.948 195.475L309.932 195.481L310.422 196.876ZM276.024 196.876L276.525 195.484L276.507 195.478L276.488 195.472L276.024 196.876ZM264.81 189.671L263.69 190.638L263.699 190.648L264.81 189.671ZM259.502 179L260.937 178.644L260.935 178.634L260.932 178.624L259.502 179ZM257.822 119.374L279.491 119.374V116.416L257.822 116.416V119.374ZM278.011 117.895L278.011 156.465H280.97L280.97 117.895H278.011ZM278.011 156.465C278.011 162.347 278.154 166.514 278.457 168.894L281.391 168.521C281.116 166.35 280.97 162.356 280.97 156.465H278.011ZM278.458 168.903C278.825 171.659 279.335 173.878 280.031 175.474L282.743 174.292C282.211 173.071 281.745 171.172 281.39 168.512L278.458 168.903ZM279.999 175.394C280.9 177.84 282.614 179.644 285.042 180.774L286.29 178.092C284.529 177.272 283.39 176.042 282.775 174.371L279.999 175.394ZM284.969 180.738C287.325 181.997 290.104 182.592 293.25 182.592V179.633C290.473 179.633 288.197 179.109 286.363 178.129L284.969 180.738ZM293.25 182.592C296.363 182.592 299.124 181.996 301.477 180.738L300.083 178.129C298.247 179.11 295.988 179.633 293.25 179.633V182.592ZM301.431 180.761C303.675 179.661 305.35 177.881 306.454 175.507L303.772 174.259C302.927 176.074 301.713 177.328 300.128 178.105L301.431 180.761ZM306.487 175.432C307.131 173.822 307.62 171.624 307.988 168.905L305.056 168.509C304.701 171.135 304.252 173.055 303.74 174.333L306.487 175.432ZM307.985 168.927C308.328 166.635 308.489 162.449 308.489 156.465H305.53C305.53 162.471 305.365 166.446 305.059 168.488L307.985 168.927ZM308.489 156.465V151.048H305.53L305.53 156.465H308.489ZM308.489 151.048L308.489 117.895H305.53L305.53 151.048H308.489ZM307.009 119.374L328.515 119.374V116.416L307.009 116.416V119.374ZM327.036 117.895L327.036 159.823H329.994L329.994 117.895L327.036 117.895ZM327.036 159.823C327.036 168.392 326.511 174.635 325.509 178.641L328.379 179.359C329.472 174.986 329.994 168.445 329.994 159.823H327.036ZM325.504 178.662C324.579 182.603 322.911 185.939 320.517 188.703L322.754 190.64C325.488 187.482 327.36 183.703 328.384 179.338L325.504 178.662ZM320.512 188.709C317.895 191.763 314.4 194.026 309.964 195.47L310.88 198.283C315.762 196.693 319.743 194.153 322.759 190.634L320.512 188.709ZM309.932 195.481C305.515 197.033 299.969 197.835 293.25 197.835V200.793C300.182 200.793 306.084 199.969 310.913 198.272L309.932 195.481ZM293.25 197.835C286.38 197.835 280.823 197.032 276.525 195.484L275.523 198.268C280.253 199.971 286.18 200.793 293.25 200.793V197.835ZM276.488 195.472C272.125 194.029 268.619 191.764 265.921 188.695L263.699 190.648C266.78 194.152 270.75 196.69 275.559 198.281L276.488 195.472ZM265.931 188.705C263.61 186.015 261.937 182.676 260.937 178.644L258.066 179.356C259.161 183.774 261.027 187.549 263.69 190.638L265.931 188.705ZM260.932 178.624C259.862 174.552 259.302 168.314 259.302 159.823H256.343C256.343 168.378 256.902 174.925 258.071 179.376L260.932 178.624ZM259.302 159.823L259.302 151.589H256.343L256.343 159.823H259.302ZM259.302 151.589L259.302 117.895H256.343L256.343 151.589H259.302ZM345.525 197.201H344.046V198.68H345.525V197.201ZM345.525 117.895V116.416L344.046 116.416V117.895L345.525 117.895ZM367.356 117.895H368.835V116.416H367.356V117.895ZM367.356 197.201V198.68H368.835V197.201H367.356ZM347.004 197.201L347.004 117.895L344.046 117.895L344.046 197.201H347.004ZM345.525 119.374L367.356 119.374V116.416L345.525 116.416V119.374ZM365.876 117.895L365.876 197.201H368.835L368.835 117.895H365.876ZM367.356 195.722L345.525 195.722V198.68L367.356 198.68V195.722ZM401.592 196.118L402.62 197.181L402.629 197.172L402.638 197.164L401.592 196.118ZM385.936 196.118L384.89 197.164L384.899 197.172L384.908 197.181L385.936 196.118ZM384.328 188.317C384.328 185.575 385.221 183.378 386.982 181.617L384.89 179.525C382.535 181.881 381.369 184.848 381.369 188.317H384.328ZM386.982 181.617C388.788 179.811 390.989 178.908 393.683 178.908V175.95C390.237 175.95 387.273 177.142 384.89 179.525L386.982 181.617ZM393.683 178.908C396.5 178.908 398.75 179.821 400.546 181.617L402.638 179.525C400.244 177.131 397.221 175.95 393.683 175.95V178.908ZM400.546 181.617C402.307 183.378 403.2 185.575 403.2 188.317H406.159C406.159 184.848 404.993 181.881 402.638 179.525L400.546 181.617ZM403.2 188.317C403.2 191.101 402.303 193.314 400.546 195.072L402.638 197.164C404.997 194.804 406.159 191.817 406.159 188.317H403.2ZM400.563 195.055C398.637 196.918 396.369 197.835 393.683 197.835V200.793C397.135 200.793 400.141 199.579 402.62 197.181L400.563 195.055ZM393.683 197.835C391.12 197.835 388.902 196.929 386.965 195.055L384.908 197.181C387.376 199.568 390.323 200.793 393.683 200.793V197.835ZM386.982 195.072C385.225 193.314 384.328 191.101 384.328 188.317H381.369C381.369 191.817 382.531 194.804 384.89 197.164L386.982 195.072Z" fill="white"/>
<path d="M7.85477 228.098L29.5231 228.098L29.5231 266.668C29.5231 272.554 29.6675 276.635 29.9565 278.91C30.3176 281.619 30.8051 283.677 31.4191 285.086C32.1775 287.144 33.604 288.661 35.6986 289.636C37.7932 290.756 40.3211 291.316 43.2825 291.316C46.2077 291.316 48.7176 290.756 50.8122 289.636C52.7263 288.697 54.1708 287.181 55.1459 285.086C55.7237 283.641 56.1932 281.583 56.5543 278.91C56.8794 276.744 57.0419 272.663 57.0419 266.668L57.0419 261.251L57.0419 228.098L78.5477 228.098L78.5477 270.026C78.5477 278.622 78.024 285.014 76.9767 289.203C76.0017 293.356 74.2321 296.913 71.668 299.875C68.8511 303.161 65.1133 305.562 60.4546 307.079C55.8321 308.704 50.108 309.517 43.2825 309.517C36.3125 309.517 30.5704 308.704 26.0562 307.079C21.4697 305.562 17.7319 303.161 14.8428 299.875C12.3509 296.985 10.5814 293.428 9.53406 289.203C8.41453 284.941 7.85477 278.549 7.85477 270.026L7.85477 261.792L7.85477 228.098ZM123.076 246.516C123.148 246.589 123.184 246.661 123.184 246.733C124.485 249.297 125.333 251.392 125.73 253.017C126.055 251.464 126.868 249.514 128.168 247.166C128.276 246.841 128.385 246.625 128.493 246.516L138.027 228.098L163.758 228.098L137.269 266.234L166.575 307.404L142.036 307.404L128.493 283.894C128.204 283.352 127.879 282.72 127.518 281.998C127.157 281.276 126.922 280.824 126.814 280.644C126.561 280.03 126.2 278.929 125.73 277.339C125.333 278.892 124.954 280.084 124.593 280.915C124.412 281.348 123.907 282.341 123.076 283.894L109.533 307.404L84.994 307.404L114.409 265.801L87.8109 228.098L113.542 228.098L123.076 246.516ZM207.528 228.098L229.197 228.098L229.197 266.668C229.197 272.554 229.341 276.635 229.63 278.91C229.991 281.619 230.479 283.677 231.093 285.086C231.851 287.144 233.278 288.661 235.372 289.636C237.467 290.756 239.995 291.316 242.956 291.316C245.881 291.316 248.391 290.756 250.486 289.636C252.4 288.697 253.844 287.181 254.82 285.086C255.397 283.641 255.867 281.583 256.228 278.91C256.553 276.744 256.715 272.663 256.715 266.668V261.251L256.715 228.098L278.221 228.098L278.221 270.026C278.221 278.622 277.698 285.014 276.65 289.203C275.675 293.356 273.906 296.913 271.342 299.875C268.525 303.161 264.787 305.562 260.128 307.079C255.506 308.704 249.782 309.517 242.956 309.517C235.986 309.517 230.244 308.704 225.73 307.079C221.143 305.562 217.406 303.161 214.516 299.875C212.025 296.985 210.255 293.428 209.208 289.203C208.088 284.941 207.528 278.549 207.528 270.026L207.528 261.792L207.528 228.098ZM295.231 307.404L295.231 228.098L317.062 228.098L317.062 307.404L295.231 307.404ZM332.555 298.52C332.555 295.414 333.584 292.832 335.642 290.774C337.737 288.679 340.319 287.632 343.389 287.632C346.567 287.632 349.203 288.679 351.298 290.774C353.356 292.832 354.385 295.414 354.385 298.52C354.385 301.662 353.356 304.262 351.298 306.321C349.095 308.452 346.458 309.517 343.389 309.517C340.427 309.517 337.845 308.452 335.642 306.321C333.584 304.262 332.555 301.662 332.555 298.52Z" fill="#E6B323"/>
<path d="M58.1487 338.299V336.82H56.6695V338.299H58.1487ZM79.817 338.299H81.2963V336.82H79.817V338.299ZM80.2504 389.112L78.7829 389.298L78.7842 389.307L80.2504 389.112ZM81.713 395.287L83.101 394.776L83.0862 394.735L83.069 394.696L81.713 395.287ZM85.9925 399.837L86.6898 398.533L86.6538 398.514L86.6168 398.496L85.9925 399.837ZM101.106 399.837L100.455 398.509L100.432 398.521L100.409 398.533L101.106 399.837ZM105.44 395.287L106.781 395.911L106.798 395.874L106.813 395.836L105.44 395.287ZM106.848 389.112L105.385 388.892L105.384 388.903L105.382 388.914L106.848 389.112ZM107.336 338.299V336.82H105.857V338.299H107.336ZM128.842 338.299H130.321V336.82H128.842V338.299ZM127.271 399.404L125.836 399.045L125.833 399.056L125.831 399.066L127.271 399.404ZM121.962 410.076L120.844 409.107L120.839 409.113L121.962 410.076ZM110.749 417.28L110.291 415.874L110.274 415.879L110.258 415.885L110.749 417.28ZM76.3501 417.28L76.8511 415.889L76.8329 415.882L76.8146 415.876L76.3501 417.28ZM65.1367 410.076L64.0166 411.042L64.0258 411.052L65.1367 410.076ZM59.828 399.404L61.2638 399.048L61.2613 399.038L61.2587 399.028L59.828 399.404ZM58.1487 339.779L79.817 339.779V336.82L58.1487 336.82V339.779ZM78.3378 338.299L78.3378 376.869H81.2963L81.2963 338.299H78.3378ZM78.3378 376.869C78.3378 382.751 78.4808 386.919 78.783 389.298L81.7178 388.925C81.4422 386.754 81.2963 382.76 81.2963 376.869H78.3378ZM78.7842 389.307C79.1517 392.064 79.6613 394.282 80.357 395.878L83.069 394.696C82.5369 393.475 82.0714 391.577 81.7167 388.916L78.7842 389.307ZM80.325 395.798C81.2262 398.245 82.9404 400.048 85.3682 401.178L86.6168 398.496C84.8554 397.676 83.7166 396.447 83.101 394.776L80.325 395.798ZM85.2952 401.142C87.651 402.401 90.4308 402.996 93.5764 402.996V400.038C90.7993 400.038 88.5232 399.513 86.6898 398.533L85.2952 401.142ZM93.5764 402.996C96.6893 402.996 99.4501 402.4 101.803 401.142L100.409 398.533C98.573 399.514 96.314 400.038 93.5764 400.038V402.996ZM101.758 401.165C104.001 400.065 105.676 398.285 106.781 395.911L104.099 394.663C103.254 396.478 102.039 397.732 100.455 398.509L101.758 401.165ZM106.813 395.836C107.457 394.226 107.947 392.028 108.314 389.31L105.382 388.914C105.027 391.54 104.578 393.459 104.066 394.738L106.813 395.836ZM108.311 389.331C108.655 387.04 108.815 382.853 108.815 376.869H105.857C105.857 382.875 105.692 386.85 105.385 388.892L108.311 389.331ZM108.815 376.869L108.815 371.452H105.857L105.857 376.869H108.815ZM108.815 371.452L108.815 338.299H105.857L105.857 371.452H108.815ZM107.336 339.779H128.842V336.82H107.336V339.779ZM127.362 338.299L127.362 380.228H130.321L130.321 338.299H127.362ZM127.362 380.228C127.362 388.796 126.837 395.039 125.836 399.045L128.706 399.763C129.799 395.391 130.321 388.849 130.321 380.228H127.362ZM125.831 399.066C124.905 403.007 123.237 406.343 120.844 409.107L123.08 411.044C125.815 407.886 127.686 404.107 128.711 399.742L125.831 399.066ZM120.839 409.113C118.221 412.167 114.726 414.43 110.291 415.874L111.207 418.687C116.089 417.097 120.069 414.557 123.085 411.038L120.839 409.113ZM110.258 415.885C105.842 417.438 100.296 418.239 93.5764 418.239L93.5764 421.197C100.508 421.197 106.41 420.374 111.239 418.676L110.258 415.885ZM93.5764 418.239C86.7068 418.239 81.1496 417.436 76.8511 415.889L75.8491 418.672C80.5791 420.375 86.506 421.197 93.5764 421.197L93.5764 418.239ZM76.8146 415.876C72.4511 414.433 68.9455 412.168 66.2477 409.099L64.0258 411.052C67.1062 414.556 71.0762 417.094 75.8857 418.685L76.8146 415.876ZM66.2569 409.11C63.9368 406.42 62.2631 403.08 61.2638 399.048L58.3922 399.76C59.4875 404.179 61.353 407.954 64.0166 411.042L66.2569 409.11ZM61.2587 399.028C60.1888 394.956 59.6279 388.718 59.6279 380.228H56.6695C56.6695 388.783 57.2281 395.329 58.3973 399.78L61.2587 399.028ZM59.6279 380.228L59.6279 371.994H56.6695L56.6695 380.228H59.6279ZM59.6279 371.994L59.6279 338.299H56.6695L56.6695 371.994H59.6279ZM173.37 356.717L172.056 357.397L172.162 357.601L172.324 357.763L173.37 356.717ZM173.478 356.934H171.999V357.288L172.159 357.603L173.478 356.934ZM176.024 363.218L174.587 363.569L177.472 363.521L176.024 363.218ZM178.462 357.368L179.756 358.084L179.822 357.965L179.865 357.835L178.462 357.368ZM178.787 356.717L179.833 357.763L179.995 357.601L180.101 357.397L178.787 356.717ZM188.321 338.299V336.82H187.421L187.008 337.619L188.321 338.299ZM214.052 338.299L215.267 339.143L216.881 336.82H214.052V338.299ZM187.563 376.436L186.348 375.592L185.754 376.446L186.358 377.293L187.563 376.436ZM216.869 417.605V419.085H219.738L218.074 416.748L216.869 417.605ZM192.33 417.605L191.048 418.344L191.475 419.085H192.33V417.605ZM178.787 394.095L177.482 394.791L177.493 394.813L177.505 394.834L178.787 394.095ZM177.108 390.845L175.74 391.408L175.782 391.511L175.839 391.606L177.108 390.845ZM176.024 387.541L177.443 387.122L175.922 381.973L174.591 387.174L176.024 387.541ZM174.887 391.116L173.53 390.526L173.526 390.537L173.521 390.547L174.887 391.116ZM173.37 394.095L174.652 394.834L174.663 394.814L174.674 394.793L173.37 394.095ZM159.827 417.605V419.085H160.682L161.109 418.344L159.827 417.605ZM135.288 417.605L134.08 416.751L132.43 419.085H135.288V417.605ZM164.703 376.002L165.911 376.856L166.514 376.003L165.911 375.15L164.703 376.002ZM138.105 338.299V336.82H135.251L136.896 339.152L138.105 338.299ZM163.836 338.299L165.15 337.619L164.736 336.82H163.836V338.299ZM172.324 357.763C172.235 357.674 171.999 357.393 171.999 356.934H174.958C174.958 356.331 174.649 355.905 174.416 355.672L172.324 357.763ZM172.159 357.603C173.439 360.127 174.23 362.105 174.587 363.569L177.461 362.867C177.025 361.081 176.118 358.869 174.798 356.265L172.159 357.603ZM177.472 363.521C177.753 362.179 178.485 360.378 179.756 358.084L177.168 356.651C175.839 359.051 174.946 361.151 174.577 362.915L177.472 363.521ZM179.865 357.835C179.885 357.777 179.902 357.73 179.917 357.693C179.932 357.656 179.942 357.634 179.948 357.623C179.954 357.611 179.951 357.619 179.937 357.64C179.929 357.65 179.918 357.667 179.902 357.687C179.885 357.707 179.863 357.734 179.833 357.763L177.741 355.672C177.366 356.046 177.171 356.562 177.059 356.9L179.865 357.835ZM180.101 357.397L189.635 338.979L187.008 337.619L177.473 356.037L180.101 357.397ZM188.321 339.779L214.052 339.779L214.052 336.82L188.321 336.82L188.321 339.779ZM212.837 337.456L186.348 375.592L188.778 377.28L215.267 339.143L212.837 337.456ZM186.358 377.293L215.664 418.463L218.074 416.748L188.768 375.578L186.358 377.293ZM216.869 416.126L192.33 416.126V419.085L216.869 419.085V416.126ZM193.612 416.867L180.069 393.357L177.505 394.834L191.048 418.344L193.612 416.867ZM180.092 393.399C179.811 392.872 179.492 392.252 179.135 391.538L176.489 392.861C176.854 393.591 177.185 394.235 177.482 394.791L180.092 393.399ZM179.135 391.538C178.783 390.833 178.52 390.324 178.376 390.084L175.839 391.606C175.912 391.727 176.119 392.121 176.489 392.861L179.135 391.538ZM178.476 390.282C178.255 389.747 177.913 388.713 177.443 387.122L174.606 387.96C175.075 389.547 175.455 390.715 175.74 391.408L178.476 390.282ZM174.591 387.174C174.201 388.699 173.845 389.802 173.53 390.526L176.243 391.706C176.651 390.768 177.053 389.488 177.457 387.907L174.591 387.174ZM173.521 390.547C173.374 390.9 172.907 391.824 172.066 393.398L174.674 394.793C175.494 393.261 176.038 392.198 176.252 391.685L173.521 390.547ZM172.088 393.357L158.546 416.867L161.109 418.344L174.652 394.834L172.088 393.357ZM159.827 416.126L135.288 416.126L135.288 419.085L159.827 419.085L159.827 416.126ZM136.496 418.459L165.911 376.856L163.495 375.148L134.08 416.751L136.496 418.459ZM165.911 375.15L139.314 337.447L136.896 339.152L163.494 376.855L165.911 375.15ZM138.105 339.779H163.836V336.82H138.105V339.779ZM162.522 338.979L172.056 357.397L174.684 356.037L165.15 337.619L162.522 338.979ZM257.822 338.299V336.82H256.343V338.299H257.822ZM279.491 338.299H280.97V336.82H279.491V338.299ZM279.924 389.112L278.457 389.298L278.458 389.307L279.924 389.112ZM281.387 395.287L282.775 394.776L282.76 394.735L282.743 394.696L281.387 395.287ZM285.666 399.837L286.363 398.533L286.327 398.514L286.29 398.496L285.666 399.837ZM300.78 399.837L300.128 398.509L300.105 398.521L300.083 398.533L300.78 399.837ZM305.113 395.287L306.454 395.911L306.472 395.874L306.487 395.836L305.113 395.287ZM306.522 389.112L305.059 388.892L305.057 388.903L305.056 388.914L306.522 389.112ZM307.009 338.299V336.82H305.53V338.299H307.009ZM328.515 338.299H329.994V336.82H328.515V338.299ZM326.944 399.404L325.509 399.045L325.507 399.056L325.504 399.066L326.944 399.404ZM321.636 410.076L320.517 409.107L320.512 409.113L321.636 410.076ZM310.422 417.28L309.964 415.874L309.948 415.879L309.932 415.885L310.422 417.28ZM276.024 417.28L276.525 415.889L276.507 415.882L276.488 415.876L276.024 417.28ZM264.81 410.076L263.69 411.042L263.699 411.052L264.81 410.076ZM259.502 399.404L260.937 399.048L260.935 399.038L260.932 399.028L259.502 399.404ZM257.822 339.779L279.491 339.779V336.82L257.822 336.82V339.779ZM278.011 338.299L278.011 376.869H280.97L280.97 338.299H278.011ZM278.011 376.869C278.011 382.751 278.154 386.919 278.457 389.298L281.391 388.925C281.116 386.754 280.97 382.76 280.97 376.869H278.011ZM278.458 389.307C278.825 392.064 279.335 394.282 280.031 395.878L282.743 394.696C282.211 393.475 281.745 391.577 281.39 388.916L278.458 389.307ZM279.999 395.798C280.9 398.245 282.614 400.048 285.042 401.178L286.29 398.496C284.529 397.676 283.39 396.447 282.775 394.776L279.999 395.798ZM284.969 401.142C287.325 402.401 290.104 402.996 293.25 402.996V400.038C290.473 400.038 288.197 399.513 286.363 398.533L284.969 401.142ZM293.25 402.996C296.363 402.996 299.124 402.4 301.477 401.142L300.083 398.533C298.247 399.514 295.988 400.038 293.25 400.038V402.996ZM301.431 401.165C303.675 400.065 305.35 398.285 306.454 395.911L303.772 394.663C302.927 396.478 301.713 397.732 300.128 398.509L301.431 401.165ZM306.487 395.836C307.131 394.226 307.62 392.028 307.988 389.31L305.056 388.914C304.701 391.54 304.252 393.459 303.74 394.738L306.487 395.836ZM307.985 389.331C308.328 387.04 308.489 382.853 308.489 376.869H305.53C305.53 382.875 305.365 386.85 305.059 388.892L307.985 389.331ZM308.489 376.869V371.452H305.53L305.53 376.869H308.489ZM308.489 371.452L308.489 338.299H305.53L305.53 371.452H308.489ZM307.009 339.779H328.515V336.82H307.009V339.779ZM327.036 338.299L327.036 380.228H329.994L329.994 338.299H327.036ZM327.036 380.228C327.036 388.796 326.511 395.039 325.509 399.045L328.379 399.763C329.472 395.391 329.994 388.849 329.994 380.228H327.036ZM325.504 399.066C324.579 403.007 322.911 406.343 320.517 409.107L322.754 411.044C325.488 407.886 327.36 404.107 328.384 399.742L325.504 399.066ZM320.512 409.113C317.895 412.167 314.4 414.43 309.964 415.874L310.88 418.687C315.762 417.097 319.743 414.557 322.759 411.038L320.512 409.113ZM309.932 415.885C305.515 417.438 299.969 418.239 293.25 418.239V421.197C300.182 421.197 306.084 420.374 310.913 418.676L309.932 415.885ZM293.25 418.239C286.38 418.239 280.823 417.436 276.525 415.889L275.523 418.672C280.253 420.375 286.18 421.197 293.25 421.197V418.239ZM276.488 415.876C272.125 414.433 268.619 412.168 265.921 409.099L263.699 411.052C266.78 414.556 270.75 417.094 275.559 418.685L276.488 415.876ZM265.931 409.11C263.61 406.42 261.937 403.08 260.937 399.048L258.066 399.76C259.161 404.179 261.027 407.954 263.69 411.042L265.931 409.11ZM260.932 399.028C259.862 394.956 259.302 388.718 259.302 380.228H256.343C256.343 388.783 256.902 395.329 258.071 399.78L260.932 399.028ZM259.302 380.228L259.302 371.994H256.343L256.343 380.228H259.302ZM259.302 371.994L259.302 338.299H256.343L256.343 371.994H259.302ZM345.525 417.605H344.046V419.085H345.525V417.605ZM345.525 338.299V336.82H344.046V338.299H345.525ZM367.356 338.299H368.835V336.82H367.356V338.299ZM367.356 417.605V419.085H368.835V417.605H367.356ZM347.004 417.605L347.004 338.299H344.046L344.046 417.605H347.004ZM345.525 339.779L367.356 339.779V336.82L345.525 336.82V339.779ZM365.876 338.299L365.876 417.605H368.835L368.835 338.299H365.876ZM367.356 416.126L345.525 416.126V419.085L367.356 419.085V416.126ZM401.592 416.522L402.62 417.585L402.629 417.577L402.638 417.568L401.592 416.522ZM385.936 416.522L384.89 417.568L384.899 417.577L384.908 417.585L385.936 416.522ZM384.328 408.721C384.328 405.979 385.221 403.782 386.982 402.021L384.89 399.929C382.535 402.285 381.369 405.252 381.369 408.721H384.328ZM386.982 402.021C388.788 400.215 390.989 399.312 393.683 399.312V396.354C390.237 396.354 387.273 397.546 384.89 399.929L386.982 402.021ZM393.683 399.312C396.5 399.312 398.75 400.225 400.546 402.021L402.638 399.929C400.244 397.535 397.221 396.354 393.683 396.354V399.312ZM400.546 402.021C402.307 403.782 403.2 405.979 403.2 408.721H406.159C406.159 405.252 404.993 402.285 402.638 399.929L400.546 402.021ZM403.2 408.721C403.2 411.505 402.303 413.718 400.546 415.476L402.638 417.568C404.997 415.209 406.159 412.221 406.159 408.721H403.2ZM400.563 415.459C398.637 417.322 396.369 418.239 393.683 418.239V421.197C397.135 421.197 400.141 419.983 402.62 417.585L400.563 415.459ZM393.683 418.239C391.12 418.239 388.902 417.333 386.965 415.459L384.908 417.585C387.376 419.972 390.323 421.197 393.683 421.197V418.239ZM386.982 415.476C385.225 413.718 384.328 411.505 384.328 408.721H381.369C381.369 412.221 382.531 415.209 384.89 417.568L386.982 415.476Z" fill="white"/>
<path d="M106.963 448.503V447.023H105.484V448.503H106.963ZM128.631 448.503H130.111V447.023H128.631V448.503ZM129.065 499.315L127.597 499.501L127.599 499.51L129.065 499.315ZM130.527 505.49L131.915 504.979L131.901 504.939L131.883 504.899L130.527 505.49ZM134.807 510.041L135.504 508.736L135.468 508.717L135.431 508.7L134.807 510.041ZM149.921 510.041L149.269 508.713L149.246 508.724L149.223 508.736L149.921 510.041ZM154.254 505.49L155.595 506.114L155.613 506.077L155.628 506.04L154.254 505.49ZM155.663 499.315L154.2 499.095L154.198 499.106L154.197 499.117L155.663 499.315ZM156.15 448.503V447.023H154.671V448.503H156.15ZM177.656 448.503H179.135V447.023H177.656V448.503ZM176.085 509.607L174.65 509.248L174.647 509.259L174.645 509.269L176.085 509.607ZM170.776 520.279L169.658 519.311L169.653 519.316L170.776 520.279ZM159.563 527.484L159.105 526.077L159.089 526.082L159.072 526.088L159.563 527.484ZM125.165 527.484L125.666 526.092L125.647 526.085L125.629 526.079L125.165 527.484ZM113.951 520.279L112.831 521.245L112.84 521.256L113.951 520.279ZM108.642 509.607L110.078 509.251L110.076 509.241L110.073 509.231L108.642 509.607ZM106.963 449.982L128.631 449.982V447.023L106.963 447.023V449.982ZM127.152 448.503L127.152 487.072H130.111L130.111 448.503H127.152ZM127.152 487.072C127.152 492.954 127.295 497.122 127.597 499.501L130.532 499.128C130.257 496.958 130.111 492.963 130.111 487.072H127.152ZM127.599 499.51C127.966 502.267 128.476 504.485 129.171 506.081L131.883 504.899C131.351 503.678 130.886 501.78 130.531 499.119L127.599 499.51ZM129.139 506.002C130.041 508.448 131.755 510.251 134.183 511.382L135.431 508.7C133.67 507.88 132.531 506.65 131.915 504.979L129.139 506.002ZM134.11 511.345C136.465 512.604 139.245 513.199 142.391 513.199V510.241C139.614 510.241 137.338 509.716 135.504 508.736L134.11 511.345ZM142.391 513.199C145.504 513.199 148.265 512.603 150.618 511.345L149.223 508.736C147.387 509.717 145.128 510.241 142.391 510.241V513.199ZM150.572 511.369C152.816 510.268 154.49 508.488 155.595 506.114L152.913 504.866C152.068 506.682 150.854 507.935 149.269 508.713L150.572 511.369ZM155.628 506.04C156.272 504.429 156.761 502.232 157.129 499.513L154.197 499.117C153.842 501.743 153.392 503.662 152.881 504.941L155.628 506.04ZM157.126 499.534C157.469 497.243 157.629 493.056 157.629 487.072H154.671C154.671 493.078 154.506 497.053 154.2 499.095L157.126 499.534ZM157.629 487.072L157.629 481.655H154.671L154.671 487.072H157.629ZM157.629 481.655L157.629 448.503H154.671L154.671 481.655H157.629ZM156.15 449.982H177.656V447.023H156.15V449.982ZM176.177 448.503L176.177 490.431H179.135L179.135 448.503H176.177ZM176.177 490.431C176.177 498.999 175.652 505.242 174.65 509.248L177.52 509.966C178.613 505.594 179.135 499.052 179.135 490.431H176.177ZM174.645 509.269C173.72 513.21 172.052 516.546 169.658 519.311L171.895 521.247C174.629 518.089 176.5 514.31 177.525 509.945L174.645 509.269ZM169.653 519.316C167.036 522.37 163.54 524.633 159.105 526.077L160.021 528.89C164.903 527.301 168.883 524.76 171.899 521.242L169.653 519.316ZM159.072 526.088C154.656 527.641 149.11 528.442 142.391 528.442L142.391 531.4C149.323 531.4 155.225 530.577 160.054 528.879L159.072 526.088ZM142.391 528.442C135.521 528.442 129.964 527.639 125.666 526.092L124.664 528.875C129.394 530.578 135.32 531.4 142.391 531.4L142.391 528.442ZM125.629 526.079C121.266 524.636 117.76 522.371 115.062 519.302L112.84 521.256C115.921 524.759 119.891 527.297 124.7 528.888L125.629 526.079ZM115.071 519.313C112.751 516.623 111.078 513.283 110.078 509.251L107.207 509.963C108.302 514.382 110.167 518.157 112.831 521.245L115.071 519.313ZM110.073 509.231C109.003 505.159 108.442 498.921 108.442 490.431H105.484C105.484 498.986 106.043 505.532 107.212 509.983L110.073 509.231ZM108.442 490.431L108.442 482.197H105.484L105.484 490.431H108.442ZM108.442 482.197L108.442 448.503H105.484L105.484 482.197H108.442ZM222.184 466.921L220.871 467.601L220.976 467.804L221.139 467.967L222.184 466.921ZM222.293 467.137H220.814V467.491L220.974 467.806L222.293 467.137ZM224.839 473.421L223.402 473.772L226.287 473.724L224.839 473.421ZM227.277 467.571L228.571 468.287L228.637 468.168L228.68 468.038L227.277 467.571ZM227.602 466.921L228.648 467.967L228.81 467.804L228.915 467.601L227.602 466.921ZM237.136 448.503V447.023H236.236L235.822 447.823L237.136 448.503ZM262.867 448.503L264.082 449.346L265.695 447.023H262.867V448.503ZM236.377 486.639L235.162 485.795L234.569 486.649L235.172 487.497L236.377 486.639ZM265.684 527.809V529.288H268.552L266.889 526.951L265.684 527.809ZM241.144 527.809L239.862 528.547L240.289 529.288H241.144V527.809ZM227.602 504.298L226.296 504.995L226.308 505.016L226.32 505.037L227.602 504.298ZM225.922 501.048L224.554 501.611L224.597 501.714L224.654 501.809L225.922 501.048ZM224.839 497.744L226.257 497.325L224.736 492.176L223.406 497.377L224.839 497.744ZM223.701 501.319L222.345 500.729L222.34 500.74L222.336 500.75L223.701 501.319ZM222.184 504.298L223.466 505.037L223.478 505.017L223.489 504.996L222.184 504.298ZM208.642 527.809V529.288H209.497L209.924 528.547L208.642 527.809ZM184.102 527.809L182.895 526.955L181.245 529.288H184.102V527.809ZM213.517 486.205L214.725 487.059L215.328 486.206L214.726 485.353L213.517 486.205ZM186.919 448.503V447.023H184.065L185.711 449.355L186.919 448.503ZM212.65 448.503L213.964 447.823L213.55 447.023H212.65V448.503ZM221.139 467.967C221.05 467.878 220.814 467.596 220.814 467.137H223.772C223.772 466.534 223.464 466.108 223.23 465.875L221.139 467.967ZM220.974 467.806C222.253 470.33 223.044 472.308 223.402 473.772L226.276 473.07C225.839 471.284 224.933 469.072 223.612 466.468L220.974 467.806ZM226.287 473.724C226.568 472.382 227.3 470.582 228.571 468.287L225.983 466.854C224.653 469.255 223.76 471.354 223.391 473.118L226.287 473.724ZM228.68 468.038C228.699 467.98 228.717 467.933 228.731 467.897C228.746 467.86 228.757 467.837 228.762 467.826C228.768 467.814 228.765 467.822 228.751 467.843C228.744 467.854 228.732 467.87 228.716 467.89C228.7 467.911 228.677 467.937 228.648 467.967L226.556 465.875C226.181 466.25 225.986 466.766 225.873 467.103L228.68 468.038ZM228.915 467.601L238.449 449.183L235.822 447.823L226.288 466.241L228.915 467.601ZM237.136 449.982L262.867 449.982V447.023L237.136 447.023L237.136 449.982ZM261.652 447.659L235.162 485.795L237.592 487.483L264.082 449.346L261.652 447.659ZM235.172 487.497L264.479 528.666L266.889 526.951L237.582 485.781L235.172 487.497ZM265.684 526.329H241.144V529.288H265.684V526.329ZM242.426 527.07L228.883 503.56L226.32 505.037L239.862 528.547L242.426 527.07ZM228.907 503.602C228.626 503.075 228.307 502.455 227.95 501.741L225.303 503.064C225.669 503.795 226 504.439 226.296 504.995L228.907 503.602ZM227.95 501.741C227.597 501.036 227.335 500.527 227.191 500.287L224.654 501.809C224.727 501.93 224.934 502.324 225.303 503.064L227.95 501.741ZM227.29 500.485C227.07 499.95 226.728 498.916 226.257 497.325L223.42 498.163C223.889 499.75 224.269 500.919 224.554 501.611L227.29 500.485ZM223.406 497.377C223.016 498.902 222.659 500.006 222.345 500.729L225.058 501.909C225.465 500.971 225.868 499.691 226.272 498.11L223.406 497.377ZM222.336 500.75C222.189 501.103 221.722 502.027 220.88 503.601L223.489 504.996C224.308 503.464 224.853 502.401 225.067 501.888L222.336 500.75ZM220.903 503.56L207.36 527.07L209.924 528.547L223.466 505.037L220.903 503.56ZM208.642 526.329L184.102 526.329L184.102 529.288L208.642 529.288L208.642 526.329ZM185.31 528.663L214.725 487.059L212.309 485.351L182.895 526.955L185.31 528.663ZM214.726 485.353L188.128 447.65L185.711 449.355L212.308 487.058L214.726 485.353ZM186.919 449.982H212.65V447.023H186.919V449.982ZM211.337 449.183L220.871 467.601L223.498 466.241L213.964 447.823L211.337 449.183ZM306.637 448.503V447.023H305.158V448.503H306.637ZM328.305 448.503H329.784V447.023H328.305V448.503ZM328.738 499.315L327.271 499.501L327.272 499.51L328.738 499.315ZM330.201 505.49L331.589 504.979L331.574 504.939L331.557 504.899L330.201 505.49ZM334.481 510.041L335.178 508.736L335.142 508.717L335.105 508.7L334.481 510.041ZM349.594 510.041L348.943 508.713L348.92 508.724L348.897 508.736L349.594 510.041ZM353.928 505.49L355.269 506.114L355.286 506.077L355.301 506.04L353.928 505.49ZM355.336 499.315L353.873 499.095L353.872 499.106L353.87 499.117L355.336 499.315ZM355.824 448.503V447.023H354.345V448.503H355.824ZM377.33 448.503H378.809V447.023H377.33V448.503ZM375.759 509.607L374.324 509.248L374.321 509.259L374.319 509.269L375.759 509.607ZM370.45 520.279L369.332 519.311L369.327 519.316L370.45 520.279ZM359.237 527.484L358.779 526.077L358.762 526.082L358.746 526.088L359.237 527.484ZM324.838 527.484L325.339 526.092L325.321 526.085L325.303 526.079L324.838 527.484ZM313.625 520.279L312.505 521.245L312.514 521.256L313.625 520.279ZM308.316 509.607L309.752 509.251L309.749 509.241L309.747 509.231L308.316 509.607ZM306.637 449.982L328.305 449.982V447.023L306.637 447.023V449.982ZM326.826 448.503L326.826 487.072H329.784L329.784 448.503H326.826ZM326.826 487.072C326.826 492.954 326.969 497.122 327.271 499.501L330.206 499.128C329.93 496.958 329.784 492.963 329.784 487.072H326.826ZM327.272 499.51C327.64 502.267 328.149 504.485 328.845 506.081L331.557 504.899C331.025 503.678 330.559 501.78 330.205 499.119L327.272 499.51ZM328.813 506.002C329.714 508.448 331.428 510.251 333.856 511.382L335.105 508.7C333.343 507.88 332.205 506.65 331.589 504.979L328.813 506.002ZM333.783 511.345C336.139 512.604 338.919 513.199 342.064 513.199V510.241C339.287 510.241 337.011 509.716 335.178 508.736L333.783 511.345ZM342.064 513.199C345.177 513.199 347.938 512.603 350.292 511.345L348.897 508.736C347.061 509.717 344.802 510.241 342.064 510.241V513.199ZM350.246 511.369C352.489 510.268 354.164 508.488 355.269 506.114L352.587 504.866C351.742 506.682 350.527 507.935 348.943 508.713L350.246 511.369ZM355.301 506.04C355.945 504.429 356.435 502.232 356.802 499.513L353.87 499.117C353.516 501.743 353.066 503.662 352.554 504.941L355.301 506.04ZM356.799 499.534C357.143 497.243 357.303 493.056 357.303 487.072H354.345C354.345 493.078 354.18 497.053 353.873 499.095L356.799 499.534ZM357.303 487.072V481.655H354.345L354.345 487.072H357.303ZM357.303 481.655L357.303 448.503H354.345L354.345 481.655H357.303ZM355.824 449.982H377.33V447.023H355.824V449.982ZM375.85 448.503L375.85 490.431H378.809L378.809 448.503H375.85ZM375.85 490.431C375.85 498.999 375.325 505.242 374.324 509.248L377.194 509.966C378.287 505.594 378.809 499.052 378.809 490.431H375.85ZM374.319 509.269C373.393 513.21 371.725 516.546 369.332 519.311L371.568 521.247C374.303 518.089 376.174 514.31 377.199 509.945L374.319 509.269ZM369.327 519.316C366.709 522.37 363.214 524.633 358.779 526.077L359.695 528.89C364.577 527.301 368.557 524.76 371.573 521.242L369.327 519.316ZM358.746 526.088C354.33 527.641 348.784 528.442 342.064 528.442V531.4C348.996 531.4 354.898 530.577 359.727 528.879L358.746 526.088ZM342.064 528.442C335.195 528.442 329.638 527.639 325.339 526.092L324.337 528.875C329.067 530.578 334.994 531.4 342.064 531.4V528.442ZM325.303 526.079C320.939 524.636 317.434 522.371 314.736 519.302L312.514 521.256C315.594 524.759 319.564 527.297 324.374 528.888L325.303 526.079ZM314.745 519.313C312.425 516.623 310.751 513.283 309.752 509.251L306.88 509.963C307.976 514.382 309.841 518.157 312.505 521.245L314.745 519.313ZM309.747 509.231C308.677 505.159 308.116 498.921 308.116 490.431H305.158C305.158 498.986 305.716 505.532 306.885 509.983L309.747 509.231ZM308.116 490.431L308.116 482.197H305.158L305.158 490.431H308.116ZM308.116 482.197L308.116 448.503H305.158L305.158 482.197H308.116ZM394.339 527.809H392.86V529.288H394.339V527.809ZM394.339 448.503V447.023H392.86V448.503H394.339ZM416.17 448.503H417.649V447.023H416.17V448.503ZM416.17 527.809V529.288H417.649V527.809H416.17ZM395.819 527.809L395.819 448.503H392.86L392.86 527.809H395.819ZM394.339 449.982L416.17 449.982V447.023L394.339 447.023V449.982ZM414.691 448.503L414.691 527.809H417.649L417.649 448.503H414.691ZM416.17 526.329L394.339 526.329V529.288L416.17 529.288V526.329ZM450.406 526.725L451.434 527.788L451.443 527.78L451.452 527.771L450.406 526.725ZM434.751 526.725L433.705 527.771L433.713 527.78L433.722 527.788L434.751 526.725ZM433.142 518.925C433.142 516.182 434.036 513.985 435.797 512.224L433.705 510.132C431.349 512.488 430.184 515.456 430.184 518.925H433.142ZM435.797 512.224C437.603 510.418 439.804 509.515 442.497 509.515V506.557C439.051 506.557 436.088 507.749 433.705 510.132L435.797 512.224ZM442.497 509.515C445.314 509.515 447.565 510.429 449.36 512.224L451.452 510.132C449.058 507.739 446.036 506.557 442.497 506.557V509.515ZM449.36 512.224C451.121 513.985 452.015 516.182 452.015 518.925H454.973C454.973 515.456 453.808 512.488 451.452 510.132L449.36 512.224ZM452.015 518.925C452.015 521.709 451.118 523.922 449.36 525.679L451.452 527.771C453.811 525.412 454.973 522.424 454.973 518.925H452.015ZM449.378 525.662C447.451 527.525 445.184 528.442 442.497 528.442V531.4C445.95 531.4 448.955 530.186 451.434 527.788L449.378 525.662ZM442.497 528.442C439.934 528.442 437.717 527.536 435.779 525.662L433.722 527.788C436.19 530.176 439.137 531.4 442.497 531.4V528.442ZM435.797 525.679C434.039 523.922 433.142 521.709 433.142 518.925H430.184C430.184 522.424 431.345 525.412 433.705 527.771L435.797 525.679Z" fill="white"/>
</svg>
